<?xml version="1.0" encoding="UTF-8"?>
<svg width="127px" height="68px" viewBox="0 0 127 68" version="1.1" xmlns="http://www.w3.org/2000/svg" xmlns:xlink="http://www.w3.org/1999/xlink">
    <!-- Generator: Sketch 51.2 (57519) - http://www.bohemiancoding.com/sketch -->
    <title>socialbeer dark</title>
    <desc>Created with Sketch.</desc>
    <defs></defs>
    <g id="Page-1" stroke="none" stroke-width="1" fill="none" fill-rule="evenodd">
        <g id="O-Saas" transform="translate(-341.000000, -3063.000000)" fill="#1E3264">
            <g id="Testimonials" transform="translate(0.000000, 2766.000000)">
                <g id="socialbeer-dark" transform="translate(341.000000, 297.000000)">
                    <g id="Page-1">
                        <path d="M41.8619077,20.3815615 C41.8619077,22.9564077 41.3549756,24.9937923 40.338505,26.6336385 C39.6347946,27.7373308 38.9584507,28.3323308 37.6318262,29.0110231 C38.929781,28.5860231 39.6347946,28.0773308 40.5926226,26.9461769 C42.1433919,25.0787923 42.9331113,22.8151769 42.9331113,20.1553308 C42.9331113,17.1842538 41.9466136,14.4694846 40.1417267,12.5445615 C39.3806769,11.7246385 38.6756633,11.2434077 37.3229756,10.6771769 C40.338505,12.6021 41.8619077,15.8831 41.8619077,20.3815615 M31.768876,12.3745615 C30.499591,13.9307154 29.7659077,16.3643308 29.7659077,19.0241769 C29.7659077,21.9939462 30.6963692,24.7387923 32.3878805,26.7199462 C33.4317176,27.9361 34.7010027,28.5585615 36.1097267,28.5585615 C39.1838986,28.5585615 41.2416,25.3050231 41.2416,20.4665615 C41.2416,17.5530231 40.5365864,15.0344077 39.155229,13.1382538 C37.9993195,11.5546385 36.7026679,10.7909462 35.0945593,10.7909462 C33.8552471,10.7909462 32.5572923,11.4134077 31.768876,12.3745615 M24.9728579,19.8441 C24.9728579,22.9276385 26.5809665,25.6724846 29.4557538,27.5398692 C30.7250389,28.3323308 31.6268308,28.6997923 33.2909756,29.0384846 C28.328514,26.9174077 25.9880253,23.9188692 25.9880253,19.7028692 C25.9880253,15.8556385 28.1317357,12.5733308 31.8809484,10.6497154 C27.9049846,11.8658692 24.9728579,15.7693308 24.9728579,19.8441 M42.5942878,11.8384077 C45.1041882,13.5344846 46.7109937,16.6193308 46.7109937,19.7591 C46.7109937,25.4174846 41.9752833,29.7472538 35.7722063,29.7472538 C29.1742697,29.7472538 24.3251837,25.5874846 24.3251837,19.9003308 C24.3251837,14.1007154 29.1469032,9.60225385 35.3486769,9.60225385 C37.7452018,9.60225385 40.5926226,10.4797154 42.5942878,11.8384077" id="Fill-1"></path>
                        <path d="M65.6258172,13.5350077 C65.3716995,11.5839308 65.3716995,11.5538538 65.0902154,11.3563923 C64.7800615,11.1013923 64.1310842,10.9039308 62.9191385,10.6777 C63.9343059,11.1301615 64.6679891,11.8938538 65.6258172,13.5350077 M62.6089846,28.3603154 C64.1884235,28.1628538 65.4850751,27.6528538 65.7391928,27.1153923 C65.8512652,26.9179308 65.9073014,26.6053923 66.0493466,24.8517769 C65.4003692,26.5217 64.4138715,27.5403923 62.6089846,28.3603154 M53.0515548,26.2667 C51.161962,24.5693154 50.0907584,22.2494692 50.0907584,19.8158538 C50.0907584,16.8460846 51.6141611,14.0450077 54.2635005,12.2063923 C55.3633738,11.4139308 56.3785412,10.9327 58.1821249,10.3377 C52.8261068,11.3001615 49.075591,15.1761615 49.075591,19.7033923 C49.075591,22.9843923 50.9925502,26.0404692 54.0667222,27.6528538 C55.2786679,28.3040846 56.2938353,28.6153154 57.9006407,28.8415462 C55.7008941,28.1340846 54.3195367,27.3978538 53.0515548,26.2667 M65.5971475,10.3377 C66.2747946,10.6214692 66.4715729,10.8751615 66.5562787,11.7238538 C66.5562787,12.0638538 66.6123149,12.4600846 66.7256905,13.1387769 C66.7817267,13.5062385 66.8103964,13.8462385 66.8103964,14.0450077 C66.8103964,14.4124692 66.5562787,14.6674692 66.1900887,14.6674692 C65.6818534,14.6674692 65.6818534,14.6674692 64.1884235,12.6863154 C63.2853285,11.4413923 62.2141249,10.8751615 60.8040977,10.8751615 C56.6600253,10.8751615 53.8686407,14.4124692 53.8686407,19.6471615 C53.8686407,24.5693154 56.5753195,28.1628538 60.2971656,28.1628538 C61.537781,28.1628538 62.6089846,27.7378538 63.6801882,26.8891615 C64.4985774,26.1817 64.5259439,26.1817 65.6818534,24.2580846 C65.8799348,23.9468538 66.1327493,23.7768538 66.4155367,23.7768538 C66.8377629,23.7768538 67.0358443,24.0606231 67.0358443,24.6830846 C67.0358443,26.6917 66.8377629,27.6240846 66.3021611,28.0490846 C65.2309575,28.9265462 62.8631023,29.4627 60.1850932,29.4627 C56.4632471,29.4627 53.8412742,28.6153154 51.6701973,26.6917 C49.6124959,24.8805462 48.4279167,22.3344692 48.4279167,19.7033923 C48.4279167,16.9023154 49.6958986,14.3549308 52.0363873,12.5163154 C54.4329122,10.6489308 57.5344507,9.60277692 60.7193919,9.60277692 C62.2427946,9.60277692 64.7240253,9.97023846 65.5971475,10.3377" id="Fill-3"></path>
                        <path d="M71.2054588,25.0786615 C71.2054588,27.4547385 71.0920833,27.7659692 70.2189611,28.1909692 C70.9800109,28.1909692 71.486943,27.9359692 71.853133,27.3985077 C72.1359204,26.9735077 72.2206262,26.4648154 72.2206262,25.1911231 L72.2206262,14.1005846 C72.2206262,12.6582 72.1072507,12.1769692 71.6563548,11.7245077 C71.261495,11.3282769 70.8666353,11.1870462 70.2189611,11.1870462 C71.0920833,11.5832769 71.2054588,11.8945077 71.2054588,14.2143538 L71.2054588,25.0786615 Z M70.6138208,14.3268154 C70.6138208,12.0082769 70.444409,11.6120462 69.3732054,11.4420462 C68.2733321,11.2720462 68.0478842,11.1295077 68.0478842,10.6495846 C68.0478842,10.2533538 68.3867077,10.0271231 68.9783457,10.0271231 L69.7680652,10.0558923 C70.3883729,10.1121231 72.5307801,10.1683538 73.0950516,10.1683538 C73.6306534,10.1683538 75.8864362,10.1121231 76.4780742,10.0558923 L77.2664905,10.0271231 C77.8594317,10.0271231 78.1982552,10.2533538 78.1982552,10.6495846 C78.1982552,11.1295077 77.9715041,11.2720462 76.8716308,11.4420462 C75.8017303,11.6120462 75.6323186,12.0082769 75.6323186,14.3268154 L75.6323186,24.9648923 C75.6323186,27.2860462 75.8017303,27.6522 76.8716308,27.8509692 C77.9441376,28.0209692 78.1982552,28.1622 78.1982552,28.6434308 C78.1982552,29.0383538 77.8594317,29.2645846 77.2951602,29.2645846 C77.1544181,29.2645846 76.8155946,29.2371231 76.4780742,29.2083538 C75.8290968,29.1808923 73.7427258,29.0958923 73.2357937,29.0958923 C72.6428525,29.0958923 70.3597032,29.1808923 69.7680652,29.2083538 C69.4292416,29.2371231 69.0904181,29.2645846 68.949676,29.2645846 C68.3867077,29.2645846 68.0478842,29.0383538 68.0478842,28.6434308 C68.0478842,28.1622 68.3020018,28.0209692 69.3732054,27.8509692 C70.444409,27.6522 70.6138208,27.2559692 70.6138208,24.9648923 L70.6138208,14.3268154 Z" id="Fill-5"></path>
                        <path d="M91.8981937,25.6156 C92.3217231,26.6342923 92.4337955,26.9742923 92.4337955,27.3417538 C92.4337955,27.6529846 92.2643837,27.8792154 91.8981937,28.1342154 C92.772619,28.0204462 93.1948452,27.6242154 93.1948452,26.9455231 C93.1948452,26.5492923 93.0541032,26.0392923 92.6592434,25.1343692 L87.8101575,13.3089077 L87.3032253,14.4976 L91.8981937,25.6156 Z M87.2185195,16.0249846 C87.1338136,15.7974462 87.020438,15.6287538 86.9644018,15.6287538 C86.8236597,15.6287538 86.1186462,17.2411385 85.1595149,19.6459846 C85.074809,19.9009846 84.9627367,20.1559846 84.8493611,20.4096769 C84.7646552,20.5796769 84.7372887,20.7496769 84.7372887,20.8909077 C84.7372887,21.1459077 84.9067005,21.2296 85.3575964,21.2296 L88.7119493,21.2296 C89.1915149,21.2296 89.332257,21.1733692 89.332257,21.0033692 C89.332257,20.9471385 89.3048905,20.8634462 89.2762208,20.7771385 L89.1354787,20.4384462 L87.2185195,16.0249846 Z M81.9172344,26.4080615 C81.4663385,27.5392154 81.1001484,27.9354462 80.1696869,28.3316769 C80.9867729,28.2754462 81.3542661,28.2466769 81.8898679,28.2466769 C82.2847276,28.2466769 82.5375421,28.2466769 84.1443475,28.3316769 C82.6795873,27.9642154 82.3120941,27.6242154 82.3120941,26.4930615 C82.3120941,26.0392923 82.3120941,25.9830615 82.5948814,24.7106769 C82.5375421,24.8519077 82.4815059,25.0219077 82.3968,25.1919077 L81.9172344,26.4080615 Z M84.7933249,22.6458308 C84.1443475,22.6458308 84.0036054,22.7582923 83.8068271,23.4082154 C83.2151891,25.3606 83.1304833,25.7856 83.1304833,26.4080615 C83.1304833,27.2279846 83.6660851,27.6529846 84.9067005,27.8229846 C85.8084923,27.9354462 86.1186462,28.1054462 86.1186462,28.5304462 C86.1186462,29.0103692 85.7798226,29.2653692 85.1321484,29.2653692 C84.9627367,29.2653692 84.6799493,29.2366 84.3697955,29.2091385 C83.4406371,29.1241385 82.9050353,29.0966769 82.2000217,29.0966769 C81.4950081,29.0966769 81.1001484,29.1241385 80.0563113,29.2091385 C79.7748271,29.2366 79.493343,29.2653692 79.2665919,29.2653692 C78.7322932,29.2653692 78.3934697,28.9829077 78.3934697,28.5866769 C78.3934697,28.1616769 78.6475873,27.9642154 79.2952615,27.8504462 C80.5645466,27.6242154 80.6779222,27.5117538 81.805162,24.7106769 C83.525343,20.5509077 85.6964199,15.1762923 87.5286733,10.6490615 C87.8948633,9.77290769 88.2336869,9.51790769 89.0794425,9.51790769 C89.6710805,9.51790769 89.8965285,9.71536923 90.2066824,10.4790615 C90.8556597,12.1764462 90.8830262,12.2339846 93.2521846,17.8073692 C94.0692706,19.7597538 94.85899,21.6559077 95.6487095,23.5507538 C96.0709357,24.4556769 96.4944652,25.3893692 96.9453611,26.4080615 C97.5656688,27.6817538 97.8471529,27.9079846 98.7215783,27.9079846 C99.4539584,27.9079846 99.708076,28.1054462 99.708076,28.5579077 C99.708076,29.0666 99.4826281,29.2653692 98.89099,29.2653692 C98.4961303,29.2653692 98.4961303,29.2653692 96.2963837,29.1529077 C95.676076,29.1241385 95.0557683,29.0966769 94.4641303,29.0966769 C93.589705,29.0966769 92.1796778,29.1529077 91.277886,29.2091385 C90.8830262,29.2366 90.4881665,29.2653692 90.2913882,29.2653692 C89.7831529,29.2653692 89.5016688,29.0391385 89.5016688,28.6429077 C89.5016688,28.1616769 89.6997502,28.0492154 90.7422842,27.8792154 C91.4759674,27.7654462 91.7848181,27.5679846 91.7848181,27.2279846 C91.7848181,27.0305231 91.4186281,25.9556 91.052438,25.0493692 C90.4321303,23.6069846 90.1219765,22.8720615 90.0659403,22.8145231 C89.9525647,22.6732923 89.8678588,22.6458308 89.332257,22.6458308 L84.7933249,22.6458308 Z" id="Fill-7"></path>
                        <path d="M19.9077068,4.94726154 C20.1931005,3.46564615 18.9081774,2.74903077 15.1928471,2.36718462 C17.7170824,3.27472308 19.0502226,4.94726154 20.002838,8.48456923 C19.955924,7.57572308 19.955924,6.95456923 19.955924,6.6198 L19.9077068,4.94726154 Z M16.0972452,32.5709538 C18.4312181,31.5679538 19.955924,29.3213385 19.955924,26.8367231 C19.955924,23.5858 17.6688652,21.3875692 11.954476,19.1409538 C5.04768869,16.4170308 3.23889231,14.7444923 3.23889231,10.9691846 C3.23889231,7.09710769 5.81004163,4.03841538 10.8115982,2.03241538 C8.71610498,2.46264615 7.62014118,2.89156923 6.19056652,3.84749231 C3.47606878,5.66387692 1.76240362,8.53164615 1.76240362,11.3039538 C1.76240362,13.3583385 2.715019,15.3656462 4.42868416,16.8956462 C5.42951674,17.7561077 7.42987873,18.8545692 10.1912905,19.9059538 C16.5259873,22.4389538 18.2891729,24.0644154 18.2891729,27.4094923 C18.2891729,29.4168 17.2883403,31.1848 15.6215891,32.1407231 C14.6689738,32.7148 13.9066208,32.9541077 12.00139,33.3843385 C14.0968833,33.2404923 14.9543674,33.0495692 16.0972452,32.5709538 L16.0972452,32.5709538 Z M1.1433991,29.8470308 C1.1433991,31.3757231 1.38057557,31.5679538 4.57203258,32.5709538 C2.47653937,30.4681846 1.76240362,29.0336462 1.1433991,26.0233385 L1.1433991,29.8470308 Z M21.7178063,9.10441538 C21.7178063,9.9178 21.3841955,10.3480308 20.6218425,10.3480308 C19.7174443,10.3480308 19.4320507,9.96487692 18.6696977,7.76664615 C17.5737339,4.80341538 15.7636344,3.3218 13.145571,3.3218 C9.90589683,3.3218 7.47679276,5.18656923 7.47679276,7.67118462 C7.47679276,9.00895385 8.00066606,9.96487692 9.14484706,10.7782615 C9.85898281,11.3039538 11.8593448,12.1160308 15.7167204,13.4538 C21.3372814,15.4611077 23.956648,18.5681846 23.956648,23.3948769 C23.956648,30.3727231 18.6696977,35.0084923 10.716467,35.0084923 C5.71491041,35.0084923 1.00005068,33.8145692 0.237697738,32.3800308 C0.000521266968,31.9027231 0.000521266968,31.9027231 0.000521266968,27.4565692 C0.000521266968,24.6855692 0.19078371,24.2082615 1.28544434,24.2082615 C1.76240362,24.2082615 2.14292851,24.4462615 2.42832217,24.9248769 C2.52475656,25.0674154 2.52475656,25.0674154 3.33402353,27.5049538 C4.47690136,30.7074923 7.00113665,32.4754923 10.3828561,32.4754923 C14.3835801,32.4754923 17.193209,30.3727231 17.193209,27.3611077 C17.193209,24.6855692 15.4313267,23.1084923 9.81076561,20.8618769 C3.04862986,18.1850308 0.666439819,15.7004154 0.666439819,11.3039538 C0.666439819,5.42587692 6.47726335,0.7888 13.8114896,0.7888 C16.1454624,0.7888 19.0033086,1.21903077 20.2882317,1.7918 C21.3841955,2.27041538 21.7178063,2.79741538 21.7178063,3.89587692 L21.7178063,9.10441538 Z" id="Fill-9"></path>
                        <path d="M124.657347,25.9512846 C123.275989,28.7235923 122.03798,29.8704385 119.560659,30.6354385 C119.799138,30.5870538 119.990704,30.5870538 120.084532,30.5870538 C120.418143,30.5870538 122.800333,30.6825154 123.085727,30.7309 L123.37112,30.7309 C123.704731,30.7309 123.704731,30.7309 124.418867,26.8601308 L124.657347,25.9512846 Z M104.320116,25.4255923 C104.320116,29.4402077 104.129853,29.9659 102.653365,30.6825154 C103.939591,30.6825154 104.797075,30.2522846 105.41608,29.3447462 C105.893039,28.6281308 106.035084,27.7676692 106.035084,25.6165154 L106.035084,6.88251538 C106.035084,4.44497692 105.844822,3.63159231 105.082469,2.8679 C104.41655,2.19836154 103.749329,1.96036154 102.653365,1.96036154 C104.129853,2.62859231 104.320116,3.15428462 104.320116,7.07343846 L104.320116,25.4255923 Z M103.320586,7.26436154 C103.320586,3.34520769 103.035193,2.67697692 101.225093,2.38928462 C99.3680796,2.1029 98.9862516,1.86359231 98.9862516,1.05151538 C98.9862516,0.383284615 99.5583421,0.000130769231 100.557871,0.000130769231 C100.796351,0.000130769231 101.368442,0.000130769231 101.892315,0.0485153846 C102.653365,0.0955923077 107.750052,0.238130769 108.654451,0.238130769 C108.941148,0.238130769 110.607899,0.191053846 113.60779,0.0485153846 L115.132496,0.000130769231 C116.322288,0.000130769231 117.036424,0.383284615 117.036424,1.05151538 C117.036424,1.86359231 116.560767,2.1029 114.321926,2.38928462 C112.131301,2.67697692 111.79769,3.34520769 111.79769,7.26436154 L111.79769,23.1789769 C111.79769,26.0467462 112.03617,27.9585923 112.513129,28.7235923 C113.0357,29.5840538 114.370143,30.1084385 116.083808,30.1084385 C118.180605,30.1084385 119.942487,29.4885923 121.418976,28.2933615 C122.466722,27.3845154 122.608767,27.1935923 124.18169,24.5651308 C124.513998,24.0394385 124.990957,23.7530538 125.563048,23.7530538 C126.228967,23.7530538 126.609491,24.1832846 126.609491,24.8044385 C126.609491,25.1862846 126.562577,25.7119769 126.419229,26.2376692 C126.180749,27.4799769 125.656876,30.4432077 125.609962,31.0172846 C125.466614,32.1170538 125.229437,32.4989 124.657347,32.4989 C124.371953,32.4989 123.84808,32.4989 122.752116,32.4034385 C121.037148,32.3550538 114.036532,32.2125154 111.465383,32.2125154 C108.130577,32.2125154 103.368804,32.3079769 101.892315,32.4034385 C101.320224,32.4505154 100.749437,32.4989 100.510957,32.4989 C99.5583421,32.4989 98.9862516,32.1170538 98.9862516,31.4475154 C98.9862516,30.6354385 99.4149937,30.3961308 101.225093,30.1084385 C103.035193,29.7749769 103.320586,29.1054385 103.320586,25.2346692 L103.320586,7.26436154 Z" id="Fill-11"></path>
                        <path d="M33.4980489,48.6491615 C34.7321484,49.4010846 35.8098679,50.8539308 36.3102842,52.4179308 C36.8120036,53.9806231 36.7129629,55.7002385 36.0783204,57.0550077 C35.5844199,58.0187769 35.0383928,58.5784692 33.810809,59.3970846 C36.9214697,57.7794692 38.4605104,54.7142385 37.5365647,51.8307769 C36.6334697,49.0166231 33.9593701,47.4643923 30.5971982,47.8227 C32.0098317,47.9403923 32.7213611,48.1326231 33.4980489,48.6491615 L33.4980489,48.6491615 Z M31.3934335,41.0096231 C32.1166914,43.2680077 31.6983747,44.8215462 29.8856688,46.5568538 C30.9620851,45.9788538 31.4481665,45.5917769 31.9994063,44.6868538 C32.829524,43.3451615 33.0758226,41.8478538 32.6627186,40.5610846 C32.2848,39.3802385 31.3517321,38.3772385 30.1150262,37.8567769 C29.0959493,37.4200077 28.3492344,37.3533154 26.8180127,37.5795462 C29.3683113,37.7913923 30.6910262,38.8205462 31.3934335,41.0096231 L31.3934335,41.0096231 Z M28.0534154,55.6191615 C28.6554787,57.4957 29.0151529,58.2607 29.5729086,58.8099308 C30.221886,59.4049308 31.3360941,59.5435462 32.6522932,59.1185462 C35.3876416,58.2358538 36.4940308,55.7316231 35.5036235,52.6402385 C34.3894154,49.1657 31.4611982,47.6579308 27.9986824,48.7747 C26.1990081,49.3566231 26.0830262,49.4703923 26.4505195,50.6172385 L28.0534154,55.6191615 Z M25.092619,46.3790077 C25.5031167,47.6644692 25.6634063,47.8043923 26.2863204,47.6030077 C28.0521122,47.0328538 29.0008181,46.5346231 29.6524018,45.8271615 C30.8382842,44.6397769 31.1536507,43.0038538 30.6076235,41.3012385 C29.7944471,38.7656231 27.5425738,37.5756231 25.1186824,38.3589308 C24.2181937,38.6479308 23.4545376,39.1252385 23.2538498,39.5737769 C23.1013792,39.9294692 23.1430805,40.2995462 23.5770353,41.6543154 L25.092619,46.3790077 Z M22.9202389,58.1966231 C23.8559131,61.1153923 23.8507005,61.5770077 22.9332706,62.4087 C23.8689448,62.1066231 24.3915149,61.5927 24.6299946,60.7884692 C24.7746462,60.1660077 24.6664833,59.4729308 24.1764923,57.9442385 L20.0337231,45.0216231 C19.1215059,42.1721615 18.3461213,41.5405462 16.4304652,42.1211615 C17.659352,42.2610846 17.931714,42.6324692 18.8778136,45.5852385 L22.9202389,58.1966231 Z M18.0398769,45.4727769 C17.238429,42.9711615 16.8057774,42.5749308 15.3292887,42.9737769 C13.7941575,43.4314692 13.3927819,43.3700077 13.2038226,42.7789308 C13.035714,42.2584692 13.4188452,41.9040846 15.2810715,40.9193923 C18.243171,39.3122385 21.7082932,37.8489308 25.5161484,36.6197 C28.7010896,35.5918538 30.8669538,35.3146231 32.8634063,35.7056231 C35.0553339,36.1083923 36.6178317,37.4069308 37.2185919,39.2821615 C37.8102299,41.1233923 37.1456145,42.9868538 35.4163113,44.5037769 C34.7308452,45.1079308 34.1183566,45.4583923 31.794809,46.5529308 C34.7008724,45.8454692 35.8515692,45.7421615 37.3202389,46.0350846 C39.6503023,46.5097769 41.2571077,47.9469308 41.9920941,50.2393154 C42.7270805,52.5317 42.2201484,54.7652385 40.5455783,56.5711615 C39.0443294,58.2057769 37.1703747,59.2702385 33.9163656,60.3216231 C32.7044199,60.7126231 32.7044199,60.7126231 29.3943747,61.5887769 C28.9330534,61.6999308 28.0325647,61.9902385 26.9248724,62.3472385 C26.3371439,62.5368538 24.9623023,63.0193923 22.7808,63.8380077 C22.3416326,64.0184692 21.9024652,64.1989308 21.7643294,64.2433923 C21.1062299,64.4552385 20.5914787,64.2760846 20.445524,63.8262385 C20.2565647,63.2351615 20.5132887,62.9605462 21.7617231,62.3276231 C22.998429,61.6593923 23.0622842,61.1402385 22.1487638,58.2920846 L18.0398769,45.4727769 Z" id="Fill-13"></path>
                        <path d="M62.8697484,54.4283769 C63.1460199,54.4061462 63.2098751,54.3303 63.1877213,54.0543769 C63.216391,53.1089154 63.3024,52.0196077 63.4587801,50.9250692 C62.493133,53.2017615 61.5313955,54.2217615 59.9298027,54.6297615 L62.8697484,54.4283769 Z M57.9059837,33.6792231 C59.0710154,33.8989154 60.2568977,34.8156077 61.2029973,36.2056846 L61.1378389,35.8264538 L61.0257665,34.8587615 L60.9527891,33.9577615 C60.9149973,33.4713 60.8055312,33.4098385 60.1839204,33.4608385 L59.9076489,33.4830692 L57.9059837,33.6792231 Z M56.5350516,43.4908385 C58.0024181,43.5823769 58.7830154,44.2179154 59.5922824,46.0722231 C59.3551059,44.8351462 59.2704,44.2126846 59.1987258,43.3116846 C59.1257484,42.4106846 59.1192326,41.8876077 59.1791783,40.9055308 C58.6266353,42.6944538 58.110581,43.1900692 56.5350516,43.4908385 L56.5350516,43.4908385 Z M48.388952,38.1803 C48.2469068,36.4123 48.061857,35.8329923 47.4650063,35.3229923 C46.9424362,34.8757615 46.4446262,34.7423769 45.6496941,34.8051462 C46.7599928,35.2053 46.9281014,35.5753769 47.1561557,38.4183 L48.2208434,51.7345308 C48.4541104,54.6467615 48.349857,55.0743769 47.3164452,55.6471462 C48.2495131,55.5713 48.8463638,55.2090692 49.2438299,54.5133769 C49.5474679,53.9654538 49.6008977,53.3338385 49.4757937,51.7737615 L48.388952,38.1803 Z M52.8666353,41.5541462 C52.9747982,42.9063 52.9747982,42.9063 54.7379837,42.7637615 C57.7430878,42.5218385 57.8421285,42.4433769 58.8429611,39.7456077 C59.0462552,39.2408385 59.2404271,39.0512231 59.6196489,39.0211462 C60.103124,38.9819154 60.477133,39.2996846 60.5162281,39.7848385 C60.5292597,39.9600692 60.5201376,40.2739154 60.5162281,40.6583769 C60.4823457,41.1147615 60.5266534,42.9612231 60.5761738,43.5849923 C60.6126624,44.0361462 60.6126624,44.0361462 60.943667,45.9976846 C60.9970968,46.2383 61.0192507,46.5155308 61.0361919,46.7234538 C61.0804995,47.2779154 60.8289882,47.6126846 60.3103276,47.6545308 C59.7577846,47.6989923 59.5310335,47.4727615 58.990219,46.3651462 C58.2004995,44.7527615 57.2517937,44.2009154 55.4899113,44.3434538 C53.3123186,44.5186846 53.1168434,44.6743 53.230219,46.0957615 L53.5325538,49.8749923 C53.8466172,53.7941462 54.6897665,54.7736077 57.4537846,54.5499923 C59.1127167,54.4166077 60.4588887,53.8543 61.3867439,52.8369154 C62.0265991,52.1582231 62.0591783,52.1203 63.0991059,49.9076846 C63.3050063,49.4369154 63.566943,49.2420692 63.9826534,49.2080692 C64.4661285,49.1701462 64.8023457,49.4565308 64.8414407,49.9416846 C64.8544724,50.1156077 64.8427439,50.3954538 64.7984362,50.7132231 C64.6329339,52.1216077 64.5156489,53.7026077 64.5430154,54.0491462 C64.5664724,55.1986077 64.423124,55.5948385 63.8353955,55.6419154 C63.559124,55.6641462 63.1421104,55.6628385 62.656029,55.6667615 L56.6666715,56.0093769 C52.3127891,56.3611462 48.0670697,56.7717615 46.8668525,56.9744538 L45.9025086,57.0856077 C45.1766443,57.1444538 44.7387801,56.9012231 44.7009882,56.4160692 C44.652771,55.8249923 44.9511964,55.6275308 46.2465448,55.3136846 C47.54059,54.9658385 47.711305,54.4976846 47.4845538,51.6534538 L46.4407167,38.6157615 C46.2139656,35.7728385 45.967667,35.3033769 44.637133,35.2013769 C43.2727167,35.1019923 42.9834136,34.9503 42.9364995,34.3618385 C42.8974045,33.8753769 43.2896579,33.5654538 44.0155222,33.5066077 L44.9850787,33.4634538 C45.9937303,33.4529923 48.8672145,33.2908385 50.318943,33.1731462 C53.6355041,32.9063769 58.8429611,32.3466846 60.5214407,32.0367615 L61.3476489,31.9360692 C61.7972416,31.8994538 62.0213864,32.0903769 62.0578751,32.5415308 C62.0683005,32.6814538 62.0930606,32.9926846 62.0813321,33.2725308 C62.0748163,33.6229923 62.1047891,34.0035308 62.1360652,34.3853769 C62.1803729,34.9398385 62.2585629,35.4916846 62.3354498,36.0095308 C62.3888796,36.2488385 62.4084271,36.4920692 62.422762,36.6659923 C62.469676,37.2557615 62.2846262,37.5499923 61.8011511,37.5879154 C61.3163729,37.6271462 61.0583457,37.4388385 60.5879023,36.7784538 C59.1752688,34.7633 57.9737484,34.0924538 56.1076127,34.2428385 C54.2766624,34.3906077 52.9396127,34.6377615 52.6477032,34.9058385 C52.4196489,35.0980692 52.4196489,35.0980692 52.5095674,37.0805308 L52.8666353,41.5541462 Z" id="Fill-15"></path>
                        <path d="M83.0380887,35.1604462 C84.1353557,35.6116 85.1127312,36.7506 85.7604054,38.3041385 L85.7734371,37.9196769 L85.8568398,36.9480615 L85.9689122,36.0509846 C86.0275548,35.5671385 85.9337267,35.4847538 85.313419,35.4076 L85.0384507,35.3736 L83.0380887,35.1604462 Z M83.7274643,56.4928308 C84.0024326,56.5268308 84.0793195,56.4666769 84.1132018,56.1907538 C84.3321339,55.2714462 84.6357719,54.2213692 85.0084778,53.1817538 C83.6049665,55.2165231 82.4581792,56.0207538 80.8057629,56.0952923 L83.7274643,56.4928308 Z M79.7202244,44.4960615 C81.1406769,44.8831385 81.7779258,45.6625231 82.1975457,47.6436769 C82.2131837,46.3830615 82.2561882,45.7566769 82.3656543,44.8596 C82.4777267,43.9612154 82.5754643,43.4486 82.8321882,42.4979077 C81.9316995,44.1390615 81.3257267,44.5196 79.7202244,44.4960615 L79.7202244,44.4960615 Z M72.8095276,37.6424462 C73.0258534,35.8809846 72.960695,35.2768308 72.4785231,34.6556769 C72.0562968,34.1116769 71.5962787,33.8802154 70.8039529,33.7821385 C71.8113014,34.3980615 71.9025231,34.7956 71.5532742,37.6267538 L69.9177991,50.8867538 C69.5607312,53.7872154 69.3717719,54.1860615 68.2445321,54.5365231 C69.1749937,54.6516 69.83179,54.4175231 70.360876,53.8172923 C70.7687674,53.3412923 70.9486045,52.7332154 71.1401701,51.1796769 L72.8095276,37.6424462 Z M76.5170389,41.8532154 C76.3515367,43.2014462 76.3515367,43.2014462 78.1069032,43.4198308 C81.1002787,43.7899077 81.2123511,43.7336769 82.7357538,41.2935231 C83.0367855,40.8397538 83.2648398,40.6932923 83.6427584,40.7403692 C84.1249303,40.8005231 84.425962,41.1889077 84.3673195,41.6714462 C84.3451656,41.8440615 84.2721882,42.1500615 84.1913919,42.5266769 C84.067591,42.9660615 83.7378896,44.7837538 83.6610027,45.4049077 C83.6062697,45.8547538 83.6062697,45.8547538 83.5358986,47.8437538 C83.5398081,48.0909077 83.5059258,48.3668308 83.4811656,48.5734462 C83.4120977,49.1266 83.0993376,49.4025231 82.5832833,49.3397538 C82.0320434,49.2704462 81.8561158,49.0036769 81.5485683,47.8084462 C81.0989756,46.0692154 80.2805864,45.3369077 78.5252199,45.1185231 C76.3580525,44.8491385 76.1339077,44.9616 75.9605864,46.3778308 L75.4953557,50.1426769 C75.0144869,54.0448308 75.6439167,55.1746769 78.3975095,55.5159846 C80.0486226,55.7212923 81.4808036,55.4440615 82.5937086,54.6346 C83.3586679,54.0984462 83.3977629,54.0683692 84.8612199,52.1107538 C85.1570389,51.6922923 85.4541611,51.5536769 85.8672652,51.6046769 C86.3494371,51.6648308 86.6204959,52.0139846 86.5605502,52.4978308 C86.5396995,52.6704462 86.4706317,52.9424462 86.3637719,53.2445231 C85.9180887,54.5914462 85.4854371,56.1162154 85.4437357,56.4614462 C85.2339258,57.5926 85.0149937,57.9509077 84.4298715,57.8776769 C84.1549032,57.8436769 83.7457086,57.7586769 83.2687493,57.6632154 L77.3315186,56.7857538 C72.9958805,56.2482923 68.7540706,55.7919077 67.5369122,55.7448308 L66.5686588,55.6611385 C65.8467041,55.5709077 65.4674824,55.2426769 65.5274281,54.7601385 C65.5991023,54.1716769 65.9301068,54.0382923 67.2645502,53.9938308 C68.6016,53.9140615 68.8635367,53.4916769 69.2127855,50.6592154 L70.8130751,37.6751385 C71.162324,34.8426769 71.0163692,34.3339846 69.7340525,33.9652154 C68.4165502,33.5912154 68.1624326,33.3832923 68.23541,32.7974462 C68.2953557,32.3136 68.7423421,32.0886769 69.4642968,32.1776 L70.4234281,32.3319077 C71.4138353,32.5254462 74.2612561,32.9491385 75.7064688,33.1282923 C79.0099982,33.5389077 84.223971,34.0462923 85.9311204,34.0829077 L86.761238,34.1509077 C87.2095276,34.2058308 87.3906679,34.4386 87.3346317,34.8884462 C87.3176905,35.0257538 87.2785955,35.3356769 87.2108308,35.6089846 C87.1339439,35.9489846 87.0870299,36.3295231 87.0401158,36.7087538 C86.9723511,37.2619077 86.9384688,37.8189846 86.9084959,38.3407538 C86.9137086,38.5866 86.8837357,38.8285231 86.8628851,39.0011385 C86.7899077,39.5882923 86.5501249,39.8393692 86.0679529,39.7792154 C85.585781,39.7190615 85.3707584,39.4823692 85.0423602,38.7409077 C84.0636814,36.4799077 83.0211475,35.5789077 81.1628308,35.3487538 C79.3396995,35.1225231 77.9804959,35.0937538 77.6403692,35.2964462 C77.3784326,35.4402923 77.3784326,35.4402923 77.0669756,37.3992154 L76.5170389,41.8532154 Z" id="Fill-17"></path>
                        <path d="M107.477821,47.6804231 C106.533024,50.0368846 105.063052,50.9051923 102.236481,50.7770385 C103.524011,51.1091923 104.438834,51.0660385 105.701604,50.7129615 C107.189821,50.2644231 108.104644,49.4706538 108.623305,48.1799615 C109.568101,45.8235 108.709314,43.4892692 106.259359,41.8625 C107.949567,43.5206538 108.357459,45.4848077 107.477821,47.6804231 L107.477821,47.6804231 Z M103.001441,54.8361154 C102.766871,52.7176538 102.00973,51.4361154 100.59449,50.8646538 C100.465477,50.8123462 100.305187,50.7469615 100.099287,50.7011923 C101.276047,51.4021154 101.48716,51.9003462 101.816862,54.9956538 L102.574002,62.2402692 C102.700409,63.4158846 102.700409,63.4158846 103.311595,63.6630385 L103.890201,63.8971154 L103.001441,54.8361154 Z M99.6210244,48.2584231 C99.2587439,49.1633462 99.3734226,49.4340385 100.17878,49.7583462 C101.208282,50.1741923 102.791631,50.3258846 103.828952,50.0695769 C105.265043,49.7491923 106.091251,48.9959615 106.698527,47.4777308 C107.760608,44.8309615 106.896608,42.4195769 104.579576,41.4845769 C103.422364,41.0164231 102.706925,41.2151923 102.176536,42.1645769 C101.969332,42.4941154 101.497586,43.5781923 100.91507,45.0310385 L99.6210244,48.2584231 Z M91.3094226,54.3548846 C90.2095493,57.0984231 89.9384905,57.4005 88.759124,57.4501923 C89.6283367,57.8006538 90.3111964,57.7758077 90.9875403,57.2998077 C91.4905629,56.9781154 91.8202643,56.4354231 92.4027801,54.9838846 L97.4760109,42.3293462 C98.1367167,40.6829615 98.2279385,40.0827308 97.9190878,39.3582692 C97.6506353,38.7253462 97.2648977,38.3814231 96.5246986,38.0819615 C97.3417846,38.9371923 97.3274498,39.3438846 96.2653683,41.9919615 L91.3094226,54.3548846 Z M96.527305,36.5833462 C97.4994679,37.0501923 99.6926986,38.0113462 100.787359,38.4533462 C102.137441,38.9986538 102.137441,38.9986538 105.18164,40.0775 C105.805857,40.2919615 106.513477,40.5770385 107.413966,40.9405769 C110.373459,42.1358077 111.743088,43.1008846 112.64097,44.5890385 C113.520608,46.0314231 113.684807,47.8608846 113.08926,49.3451154 C112.260445,51.4112692 110.197531,52.6405 107.738454,52.6235 C106.862726,52.5698846 106.102979,52.4129615 104.591305,51.9905769 C106.688101,53.2865 106.925278,53.7193462 107.311015,56.7649615 L107.77364,60.7390385 C108.074671,64.4620385 108.221929,64.9328077 109.194092,65.4009615 C109.862617,65.7828077 110.075033,66.0927308 109.879558,66.5778846 C109.699721,67.0290385 109.260554,67.1898846 108.778382,66.9950385 C108.552934,66.9048077 108.180228,66.7165 107.807522,66.5281923 C107.2224,66.2169615 106.282816,65.7618846 105.671631,65.5160385 C105.093024,65.2819615 104.789386,65.1969615 103.656934,64.8530385 C103.258165,64.7288077 102.859395,64.6058846 102.602671,64.5025769 C102.022762,64.2685 102.022762,64.2685 101.852047,62.7358846 L101.107938,55.2715769 C100.72611,52.6810385 100.72611,52.6810385 100.572337,52.1318077 C100.374255,51.6008846 100.001549,51.2255769 99.3265086,50.9522692 C98.6827439,50.6933462 98.6827439,50.6933462 97.8734769,52.6169615 L96.3982914,56.2968077 C95.3375131,58.9435769 95.3622733,59.4418077 96.5064543,60.1283462 C97.6701828,60.8606538 97.8630516,61.1261154 97.6441195,61.6740385 C97.4747077,62.0951154 96.9729882,62.2285 96.3292235,61.9695769 L95.4091873,61.5602692 C94.6950516,61.1967308 92.3532597,60.1388077 91.8072326,59.9191154 C91.2924814,59.7098846 88.3264724,58.6258077 87.7530787,58.4688846 L86.8069792,58.1249615 C86.1645176,57.8647308 85.894762,57.4188077 86.0628706,56.9990385 C86.2831059,56.4498077 86.6049882,56.3935769 87.949857,56.6734231 C89.2504181,56.9728846 89.6244271,56.6001923 90.6721738,53.9848077 L95.5395041,41.8468077 C96.6002824,39.2000385 96.5885538,38.6704231 95.4430697,37.9825769 C94.2663095,37.2829615 94.0734407,37.0175 94.293676,36.4695769 C94.4748163,36.0171154 94.9648072,35.9151154 95.639848,36.1871154 L96.527305,36.5833462 Z" id="Fill-19"></path>
                    </g>
                </g>
            </g>
        </g>
    </g>
</svg>