<?xml version="1.0" encoding="UTF-8"?>
<svg width="116px" height="61px" viewBox="0 0 116 61" version="1.1" xmlns="http://www.w3.org/2000/svg" xmlns:xlink="http://www.w3.org/1999/xlink">
    <!-- Generator: Sketch 51.2 (57519) - http://www.bohemiancoding.com/sketch -->
    <title>cloudforce dark</title>
    <desc>Created with Sketch.</desc>
    <defs>
        <polygon id="path-1" points="2.04167942e-20 0.249512195 2.04167942e-20 13.1152683 10.5513299 13.1152683 10.5513299 0.249512195 0 0.249512195"></polygon>
    </defs>
    <g id="Page-1" stroke="none" stroke-width="1" fill="none" fill-rule="evenodd">
        <g id="O-Saas" transform="translate(-537.000000, -3066.000000)">
            <g id="Testimonials" transform="translate(0.000000, 2766.000000)">
                <g id="cloudforce-dark" transform="translate(537.000000, 300.000000)">
                    <g id="Page-1">
                        <path d="M41.4829558,23.3606927 L33.2213455,31.6565951 L34.5440468,31.6565951 L38.4835273,31.6565951 L50.3079948,31.6565951 C55.7524623,31.6565951 60.1634753,27.2243512 60.1634753,21.7623024 C60.1634753,17.7050829 57.7274753,14.2270341 54.2504883,12.7012293 C54.1600987,5.67254634 48.4685662,0.000302439024 41.4422805,0.000302439024 C35.9435792,0.000302439024 31.2613974,3.4859122 29.4505922,8.37332683 C28.3719429,6.90044878 26.6515273,5.9341561 24.6855532,5.9341561 C21.4224883,5.9341561 18.7740727,8.59108293 18.7740727,11.8710341 C18.7740727,12.1417171 18.8192675,12.4003024 18.8539169,12.6634244 C15.3317351,14.1695707 12.8595792,17.6763512 12.8595792,21.7623024 C12.8595792,27.2243512 17.2781247,31.6565951 22.7165662,31.6565951 L25.4146961,31.6565951 L37.5826442,19.4441073 L31.8579688,13.699278 L47.2091377,13.699278 L47.2076312,29.1070341" id="Fill-1" fill="#1E3264"></path>
                        <g id="Group-5" transform="translate(0.000000, 41.090576)">
                            <mask id="mask-2" fill="white">
                                <use xlink:href="#path-1"></use>
                            </mask>
                            <g id="Clip-4"></g>
                            <path d="M10.5513299,10.175561 C9.30997922,11.8949268 7.48410909,13.1152683 5.82997922,13.1152683 C2.15413506,13.1152683 -0.000150649351,10.2587317 -0.000150649351,7.26458537 C-0.000150649351,5.18380488 0.992628571,3.27087805 2.79138182,1.91292683 C4.44852468,0.665365854 6.21413506,0.249512195 7.26416104,0.249512195 L7.29278442,0.249512195 C8.31418701,0.249512195 9.22561558,0.582195122 9.69564156,0.942097561 C10.0828104,1.24756098 10.1957974,1.52429268 10.1957974,1.91292683 C10.167174,2.6342439 9.50281039,3.29960976 9.08852468,3.29960976 C8.9213039,3.29960976 8.7586026,3.21492683 8.51003117,2.99414634 C7.48410909,2.07926829 6.57418701,1.66341463 5.7184987,1.66341463 C4.36566753,1.66341463 3.01132987,2.91097561 3.01132987,5.85068293 C3.01132987,9.59336585 5.63413506,10.8137073 6.95984935,10.8137073 C8.12135584,10.8137073 8.94842078,10.5082439 10.0556935,9.53892683 L10.5513299,10.175561 Z" id="Fill-3" fill="#1E3264" mask="url(#mask-2)"></path>
                        </g>
                        <path d="M10.9618494,53.8727073 L10.9618494,53.041 C12.6461091,52.8187073 12.8389403,52.6795854 12.8389403,50.878561 L12.8389403,38.0400244 C12.8389403,36.2647073 12.7018494,36.2102683 11.0733299,36.0167073 L11.0733299,35.2681707 C12.6204987,35.1003171 14.5533299,34.6859756 15.8790442,34.2973415 L15.8790442,50.878561 C15.8790442,52.7370488 16.0718753,52.8746585 17.7847584,53.041 L17.7847584,53.8727073 L10.9618494,53.8727073 Z" id="Fill-6" fill="#1E3264"></path>
                        <path d="M22.5312675,47.0796244 C22.5312675,50.5168439 23.7756312,53.1798195 25.7099688,53.1798195 C27.0085662,53.1798195 28.2212935,52.292161 28.2212935,48.2999659 C28.2212935,44.6948927 27.1170338,42.3661122 25.1013455,42.3661122 C23.7756312,42.3661122 22.5312675,43.9191366 22.5312675,47.0796244 M31.6756831,47.5514293 C31.6756831,52.0154293 28.4698649,54.2050878 25.4056571,54.2050878 C21.2612935,54.2050878 19.0798909,51.1005512 19.0798909,48.0504537 C19.0798909,43.557722 22.5870078,41.3408439 25.5141247,41.3408439 C29.1899688,41.3408439 31.6756831,44.1958683 31.6756831,47.5514293" id="Fill-8" fill="#1E3264"></path>
                        <path d="M47.0559273,53.2073415 C46.310213,53.2905122 45.5373818,53.4568537 44.7073039,53.6519268 C43.880239,53.8167561 43.0787844,54.0390488 42.3586805,54.2053902 L42.137226,54.0118293 L42.137226,52.2365122 C41.6144727,52.6523659 41.200187,53.041 40.5087065,53.4296341 C39.7072519,53.9286585 39.0187844,54.2053902 38.1887065,54.2053902 C36.0600312,54.2053902 34.6544727,52.847439 34.6544727,50.1859756 L34.6544727,44.5832927 C34.6544727,43.2253415 34.4586286,43.0862195 33.770161,42.919878 L33.077174,42.7263171 L33.077174,41.9777805 C33.7144208,41.950561 34.5143688,41.8673902 35.3700571,41.7827073 C36.2287584,41.6995366 37.137174,41.5891463 37.7744208,41.4787561 C37.6900571,42.5312439 37.6900571,43.9179268 37.6900571,45.6100732 L37.6900571,49.5206098 C37.6900571,51.5726585 38.7144727,52.2092927 39.7916156,52.2092927 C40.620187,52.2092927 41.3930182,51.9597805 42.137226,51.2384634 L42.137226,44.6120244 C42.137226,43.2540732 41.9459013,43.059 41.1444468,42.919878 L40.2330182,42.7263171 L40.2330182,41.9777805 C41.0329662,41.950561 42.0016416,41.8673902 42.9115636,41.7827073 C43.7958753,41.6995366 44.6244468,41.5891463 45.1773299,41.4787561 L45.1773299,50.5730976 C45.1773299,51.987 45.370161,52.2365122 46.3915636,52.3211951 L47.0559273,52.3756341 L47.0559273,53.2073415 Z" id="Fill-10" fill="#1E3264"></path>
                        <path d="M57.188,43.8905561 C56.6622338,42.9197268 55.7779221,42.4766537 54.8664935,42.4766537 C53.9806753,42.4766537 51.7992727,43.308361 51.7992727,47.4684098 C51.7992727,50.8239707 53.7878442,52.2378732 55.2536623,52.2378732 C55.9436364,52.2378732 56.5507532,52.0155805 57.188,51.5997268 L57.188,43.8905561 Z M62.2136623,53.1527512 C61.5523117,53.2631415 59.1735584,53.5958244 57.188,54.2339707 L57.188,52.5418244 L55.5022338,53.5958244 C54.6736623,54.0948488 54.1478961,54.205239 53.8435844,54.205239 C51.5220779,54.205239 48.375013,52.2378732 48.375013,48.1882146 C48.375013,44.4183122 51.6908052,41.3409951 55.8065455,41.3409951 C56.0837403,41.3409951 56.5507532,41.3954341 57.188,41.5345561 L57.188,37.9854341 C57.188,36.3764585 57.0207792,36.2373366 55.225039,36.0725073 L55.225039,35.2680195 C56.8836883,35.0729463 58.9551169,34.6858244 60.2250909,34.2971902 L60.2250909,50.4897756 C60.2250909,52.0155805 60.3923117,52.1259707 61.4965714,52.2650927 L62.2136623,52.3482634 L62.2136623,53.1527512 Z" id="Fill-12" fill="#1E3264"></path>
                        <path d="M66.1312987,41.8112878 C66.6284416,39.6201171 67.2882857,37.8735317 68.5898961,36.5428 C70.0511948,35.0729463 71.7942078,34.2971902 72.8713506,34.2971902 C74.1127013,34.2971902 74.7770649,35.0457268 74.7499481,35.6551415 C74.7213247,36.2660683 74.1970649,36.8467512 73.8355065,37.0690439 C73.5884416,37.2368976 73.3684935,37.2641171 73.1199221,37.0146049 C72.4269351,36.2101171 71.8213247,35.7383122 71.2970649,35.7383122 C70.576961,35.7110927 69.9427273,36.488361 69.087039,41.8112878 L72.2627273,41.8112878 L71.6812208,42.8380683 L68.8384675,43.0860683 C68.3654286,45.7762634 68.0385195,47.9114829 67.3455325,51.0447512 C66.2955065,55.6750927 65.1355065,57.5895317 63.3397662,59.1969951 C62.1797662,60.2782146 61.074,60.7485073 60.2725455,60.7485073 C59.4168571,60.7485073 58.4798182,60.1390927 58.4798182,59.4737268 C58.4798182,58.9202634 58.9468312,58.3652878 59.3882338,58.0326049 C59.6127013,57.8647512 59.7769091,57.8375317 59.9426234,58.0038732 C60.4653766,58.4771902 61.4355584,58.8643122 61.9583117,58.8643122 C62.3997143,58.8643122 62.7326494,58.6420195 62.9525974,58.2261659 C63.1725455,57.8375317 63.616961,56.8122634 64.4169091,52.0428 C65.0541558,48.2441659 65.4111948,45.7762634 65.8797143,43.0588488 L63.6455844,43.0588488 L63.5612208,42.7821171 L64.4455325,41.8112878 L66.1312987,41.8112878 Z" id="Fill-14" fill="#1E3264"></path>
                        <path d="M77.0401195,52.8751122 C78.2543532,52.3760878 79.6071844,49.4363805 79.6071844,45.6649659 C79.6071844,43.4753073 78.8072364,42.504478 77.7572104,42.504478 C77.508639,42.504478 77.2043273,42.5604293 76.9557558,42.6708195 C76.1000675,43.0866732 74.361574,45.3882341 74.361574,49.8522341 C74.361574,51.9315024 75.2142494,53.0142341 76.2672883,53.0142341 C76.5957039,53.0142341 76.7915481,52.9582829 77.0401195,52.8751122 M71.2371065,49.7418439 C71.2371065,46.1367707 73.2286909,43.4753073 75.3814701,42.3381366 C76.458613,41.7272098 77.6999636,41.3400878 78.778613,41.3400878 C81.3486909,41.3400878 82.7301455,43.0579415 82.7301455,45.7194049 C82.7301455,48.1328683 81.7614701,50.7671122 79.7744052,52.4305268 C78.5857818,53.4573073 76.8728987,54.2058439 75.2142494,54.2058439 C72.1515481,54.2058439 71.2371065,51.9042829 71.2371065,49.7418439" id="Fill-16" fill="#1E3264"></path>
                        <path d="M89.131839,45.831761 C90.4846701,43.2806878 91.9791117,41.3405415 93.1391117,41.3405415 C93.6362545,41.3405415 94.1318909,41.6444927 94.4090857,42.0603463 C94.7133974,42.5049317 94.6576571,43.0856146 94.3247221,43.5861512 C94.0204104,44.0851756 93.7432156,44.3891268 93.4404104,44.638639 C93.191839,44.8064927 92.9718909,44.8337122 92.7790597,44.6673707 C92.4461247,44.3059561 92.0619688,44.1411268 91.7305403,44.1411268 C91.4533455,44.1411268 91.1204104,44.3059561 90.5419169,45.1104439 C89.8504364,46.0812732 89.131839,47.3560537 88.8275273,48.2996634 C88.4418649,49.9071268 88.0275792,52.0151268 87.7503844,53.6241024 C86.8690857,53.7344927 85.7904364,53.9552732 85.0432156,54.179078 L84.8232675,53.9552732 C85.5162545,51.0442976 86.1760987,47.9942 86.7289818,45.0272732 C86.8977091,44.1411268 86.8977091,43.7797122 86.6732416,43.7797122 C86.4246701,43.7797122 85.4876312,44.3346878 84.9061247,44.8896634 L84.4903325,44.1683463 C86.0390078,42.5593707 87.8618649,41.3405415 88.8019169,41.3405415 C89.5762545,41.3405415 89.7389558,42.3930293 89.2990597,44.5569805 L89.0233714,45.831761 L89.131839,45.831761 Z" id="Fill-18" fill="#1E3264"></path>
                        <path d="M103.547927,51.0719707 C101.72507,53.1240195 99.5707844,54.205239 97.8579013,54.205239 C95.8150961,54.205239 94.5993558,52.7368976 94.5993558,50.073922 C94.5993558,47.7451415 95.6192519,45.1108976 97.5535896,43.3915317 C98.7437195,42.3375317 100.703668,41.3394829 102.195096,41.3394829 C103.466577,41.3394829 104.516603,42.0048488 104.516603,42.8652878 C104.543719,43.3643122 104.212291,43.9737268 103.43946,44.4183122 C103.162265,44.6118732 102.9152,44.5846537 102.692239,44.3064098 C102.002265,43.2251902 101.285174,42.7533854 100.536447,42.7533854 C99.8750961,42.7533854 99.2950961,43.308361 98.8265766,44.223239 C98.1893299,45.4435805 97.7208104,47.3292878 97.7208104,49.3253854 C97.7208104,51.3214829 98.4107844,52.2091415 99.5436675,52.2091415 C100.813642,52.2091415 102.415044,50.9888 103.077901,50.3234341 L103.547927,51.0719707 Z" id="Fill-20" fill="#1E3264"></path>
                        <path d="M110.725766,42.8649854 C110.061403,43.280839 108.847169,44.7506927 108.458494,47.6329366 C111.774286,46.6636195 112.824312,45.4720098 112.824312,44.0565951 C112.824312,43.0025951 112.187065,42.559522 111.662805,42.559522 C111.358494,42.559522 111.001455,42.6714244 110.725766,42.8649854 L110.725766,42.8649854 Z M114.81439,50.8781073 C112.354286,53.4564 110.257247,54.2049366 108.569974,54.2049366 C107.049922,54.2049366 105.284312,53.3732293 105.284312,50.1023512 C105.284312,47.4953268 106.444312,44.667522 108.542857,43.0313268 C109.67574,42.1436683 111.414234,41.3406927 112.795688,41.3406927 C114.592935,41.3406927 115.502857,42.4204 115.502857,43.667961 C115.502857,46.497278 111.081299,47.9111805 108.350026,48.6324976 C108.321403,48.937961 108.321403,49.1874732 108.321403,49.4082537 C108.321403,50.8508878 108.818545,52.208839 110.309974,52.208839 C111.414234,52.208839 112.988519,51.4330829 114.317247,50.1295707 L114.81439,50.8781073 Z" id="Fill-22" fill="#1E3264"></path>
                    </g>
                </g>
            </g>
        </g>
    </g>
</svg>