<?xml version="1.0" encoding="UTF-8"?>
<svg width="159px" height="16px" viewBox="0 0 159 16" version="1.1" xmlns="http://www.w3.org/2000/svg" xmlns:xlink="http://www.w3.org/1999/xlink">
    <!-- Generator: Sketch 51.2 (57519) - http://www.bohemiancoding.com/sketch -->
    <title>simplefolk dark</title>
    <desc>Created with Sketch.</desc>
    <defs>
        <polygon id="path-1" points="0 15.2123685 158.966154 15.2123685 158.966154 0.000516619183 0 0.000516619183"></polygon>
    </defs>
    <g id="Page-1" stroke="none" stroke-width="1" fill="none" fill-rule="evenodd">
        <g id="O-Saas" transform="translate(-715.000000, -3088.000000)">
            <g id="Testimonials" transform="translate(0.000000, 2766.000000)">
                <g id="simplefolk" transform="translate(715.000000, 322.000000)">
                    <g id="Page-1" transform="translate(0.000000, 0.795650)">
                        <mask id="mask-2" fill="white">
                            <use xlink:href="#path-1"></use>
                        </mask>
                        <g id="Clip-2"></g>
                        <path d="M158.84253,14.3961102 C156.743385,14.4348566 153.432615,11.0548756 151.126974,8.66422032 C150.448684,7.9848661 149.852444,7.30422032 149.358769,6.85734473 C149.913983,6.3717227 150.552615,5.71174169 151.210393,5.01301425 C152.959453,3.2048471 155.057231,1.04925356 156.806291,0.85422982 C157.072957,0.8348566 157.072957,0.52488509 156.806291,0.504220323 C156.189538,0.465473884 155.571419,0.542966762 154.954667,0.542966762 C154.254496,0.542966762 153.576205,0.563631529 152.897915,0.52488509 C152.691419,0.504220323 152.588855,0.621751187 152.670906,0.757363723 C152.754325,0.892976258 152.793983,1.06862678 152.793983,1.24298575 C152.793983,2.13673694 151.066803,3.5548566 149.997402,4.46798101 C149.811419,4.62296676 149.565265,4.87611016 149.440821,4.99234948 C149.010051,5.40047863 148.289368,6.11987085 147.816205,6.6248661 C147.795692,5.12925356 147.754667,3.51611016 147.775179,2.11736372 C147.775179,1.49612915 148.30988,0.912349478 148.967658,0.873603039 C149.235692,0.85422982 149.235692,0.542966762 148.967658,0.52488509 C147.384068,0.426727445 145.778598,0.504220323 144.196376,0.504220323 C143.98988,0.504220323 143.885949,0.621751187 143.98988,0.737990503 C144.153983,0.989842355 144.422017,1.02988034 144.750222,1.06862678 C145.142701,1.12674644 145.59535,1.14611966 145.59535,2.03987085 L145.59535,12.842378 C145.59535,14.1055119 145.532444,14.3379905 144.360479,14.5523875 C144.092444,14.5911339 144.114325,14.9011054 144.380991,14.9011054 C146.02612,14.9605166 147.671248,14.8429858 149.317744,14.8429858 C149.544752,14.8429858 149.647316,14.6105071 149.440821,14.5317227 C149.070222,14.3379905 148.721504,14.3186173 148.434325,14.2798708 C147.980308,14.2411244 147.754667,14.202378 147.754667,12.6473542 L147.754667,7.94611966 C148.330393,8.47048813 148.926632,9.13176068 149.626803,9.88860779 C151.869538,12.2779715 154.604581,15.2123685 157.156376,15.2123685 C157.814154,15.2123685 158.430906,15.0380095 158.966974,14.7267464 L158.84253,14.3961102 Z M138.339282,12.0454929 C137.743043,13.2311339 136.528684,14.0267274 135.191248,14.0267274 C133.833299,14.0267274 132.763897,13.1910959 132.763897,11.8310959 L132.763897,1.96237797 C132.763897,1.32047863 133.216547,0.933014245 133.853812,0.971760684 L134.142359,0.989842355 C134.38988,1.01050712 134.451419,0.699244065 134.22441,0.641124406 C133.54612,0.426727445 132.763897,0.542966762 132.022701,0.542966762 L129.205607,0.542966762 C129.019624,0.542966762 128.896547,0.679870845 128.978598,0.796110161 C129.081162,1.04925356 129.390222,1.10737322 129.740308,1.12674644 C130.130051,1.16549288 130.604581,1.20423932 130.604581,2.0979905 L130.604581,12.8230047 C130.604581,13.6780095 130.398085,14.473603 129.431248,14.513641 C129.163214,14.513641 129.144068,14.8429858 129.410735,14.862359 C130.151932,14.9011054 130.891761,14.7848661 131.673983,14.7848661 C132.434325,14.7848661 133.175521,14.8236125 133.937231,14.8042393 C134.67706,14.7848661 135.418256,14.7848661 136.137573,14.7848661 C136.940308,14.7848661 137.743043,14.7848661 138.564923,14.862359 C138.605949,14.202378 138.667487,13.4442393 138.771419,12.4923685 C138.771419,12.3761292 138.791932,12.2598898 138.812444,12.142359 C138.85347,11.9486268 138.462359,11.8698424 138.339282,12.0454929 L138.339282,12.0454929 Z M121.745778,8.08173219 C121.745778,4.70175119 119.604239,1.088 115.717744,1.088 C112.055521,1.088 109.998769,3.808 109.998769,7.12986135 C109.998769,10.5111339 112.199111,14.202378 116.107487,14.202378 C119.769709,14.202378 121.745778,11.3661387 121.745778,8.08173219 L121.745778,8.08173219 Z M123.823043,8.12047863 C123.823043,12.1229858 120.633983,14.2798708 116.807658,15.0961292 C116.498598,15.1542488 115.779282,15.173622 115.429197,15.173622 C112.014496,15.173622 107.817573,11.5017512 107.817573,8.10110541 C107.817573,3.51611016 109.812786,1.16549288 114.976547,0.116755935 C115.347145,0.0392630579 115.799795,0.000516619183 116.190906,0.000516619183 C121.373812,0.000516619183 123.823043,4.33236847 123.823043,8.12047863 L123.823043,8.12047863 Z M101.261675,0.52488509 L99.1009915,0.52488509 C97.3314188,0.52488509 95.582359,0.52488509 93.8141538,0.465473884 C93.5871453,0.465473884 93.4845812,0.699244065 93.7115897,0.796110161 C93.9782564,0.951095916 94.2668034,1.02988034 94.5129573,1.088 C94.945094,1.1848661 95.2746667,1.24298575 95.2746667,2.00112441 L95.2746667,12.7648851 C95.2746667,14.0267274 95.233641,14.2604976 94.0397949,14.473603 C93.7731282,14.513641 93.793641,14.8042393 94.0603077,14.8042393 C94.9040684,14.8429858 95.7683419,14.862359 96.6121026,14.862359 C97.4339829,14.862359 98.2777436,14.8429858 99.1009915,14.8042393 L99.0599658,14.473603 C97.6815043,14.5317227 97.4339829,13.9492346 97.4339829,12.7054739 L97.4339829,7.7317227 C97.6404786,7.75109592 97.7635556,7.75109592 97.9891966,7.75109592 C98.2777436,7.75109592 98.5457778,7.7317227 98.8329573,7.71234948 C99.1009915,7.69297626 99.3471453,7.67360304 99.5946667,7.67360304 C100.664068,7.67360304 101.280821,8.00423932 101.261675,9.11109592 C101.261675,9.30611966 101.693812,9.3448661 101.734838,9.1511339 C101.939966,8.25738272 102.104068,7.30422032 102.145094,6.35234948 C102.145094,6.1779905 101.89894,6.11987085 101.734838,6.23611016 C101.58988,6.39238746 101.178256,6.68298575 100.973128,6.68298575 L97.4339829,6.68298575 L97.4339829,1.70923457 C97.8661197,1.70923457 98.113641,1.65111491 98.5457778,1.59299525 C99.039453,1.53487559 99.5126154,1.47675594 99.965265,1.47675594 C101.034667,1.47675594 101.712957,1.86551187 101.712957,2.97236847 C101.712957,3.12735423 101.89894,3.18676543 102.083556,3.10798101 C102.536205,2.7980095 102.577231,1.86551187 102.618256,1.12674644 C102.638769,0.873603039 102.659282,0.621751187 102.681162,0.465473884 L102.35159,0.310488129 C102.001504,0.447392213 101.630906,0.52488509 101.261675,0.52488509 L101.261675,0.52488509 Z M88.0596239,12.2779715 C87.7505641,13.4248661 86.8247521,14.0461007 85.6514188,14.0461007 C84.7474872,14.0461007 83.6356923,13.7167559 83.1433846,12.9198708 L83.1433846,7.67360304 L83.4921026,7.67360304 C84.253812,7.67360304 86.1656068,7.65422982 86.5156923,7.9848661 C86.6401368,8.08173219 86.7016752,8.35424881 86.7837265,8.58672745 C86.845265,8.74300475 86.9273162,8.97548338 87.0927863,9.13176068 C87.2568889,9.248 87.5030427,9.18988034 87.5030427,9.03360304 C87.5454359,8.54798101 87.6069744,8.04298575 87.6890256,7.55736372 C87.7505641,7.16860779 87.8121026,6.76047863 87.8531282,6.3717227 C87.873641,6.25548338 87.7095385,6.15861728 87.5454359,6.1779905 C87.4004786,6.19736372 87.1543248,6.31360304 86.8657778,6.4311339 C86.5977436,6.54737322 86.2900513,6.66361254 86.1464615,6.66361254 L83.1215043,6.66361254 L83.1215043,1.47675594 C83.3485128,1.51550237 83.328,1.47675594 83.553641,1.47675594 C83.842188,1.47675594 84.1498803,1.47675594 84.4179145,1.45738272 C84.6640684,1.43671795 84.9115897,1.43671795 85.1372308,1.43671795 C86.2490256,1.43671795 87.0517607,1.70923457 87.1543248,2.89487559 C87.1748376,3.08860779 87.5864615,3.08860779 87.6274872,2.89487559 C87.648,2.77863628 87.6890256,2.69985185 87.7095385,2.60298575 C87.873641,1.92363153 88.0391111,1.1848661 88.1211624,0.465473884 C88.1416752,0.329861349 87.9556923,0.252368471 87.7710769,0.310488129 C87.6274872,0.387981007 87.4620171,0.447392213 87.4004786,0.447392213 L79.5016752,0.447392213 C79.2746667,0.447392213 79.1721026,0.660497626 79.3785983,0.757363723 C79.645265,0.933014245 79.933812,1.02988034 80.2209915,1.088 C80.6121026,1.1848661 80.9827009,1.24298575 80.9827009,1.94300475 L80.9827009,12.7648851 C80.9827009,13.6379715 80.8172308,14.4154834 79.7888547,14.4542298 C79.522188,14.4542298 79.5016752,14.7848661 79.7683419,14.7848661 C80.7556923,14.8817322 81.9085128,14.9011054 83.0599658,14.9011054 C83.6767179,14.9011054 84.3153504,14.8817322 84.9526154,14.8817322 L87.5659487,14.8817322 L87.9351795,14.7848661 C88.0391111,14.7848661 88.1211624,14.7267464 88.1416752,14.6492536 L88.2032137,14.1830047 C88.285265,13.5604786 88.3673162,12.9586173 88.5327863,12.3567559 C88.573812,12.1617322 88.1006496,12.0842393 88.0596239,12.2779715 L88.0596239,12.2779715 Z M73.7266325,12.0454929 C73.1303932,13.2311339 71.9160342,14.0267274 70.5785983,14.0267274 C69.2206496,14.0267274 68.1512479,13.1910959 68.1512479,11.8310959 L68.1512479,1.96237797 C68.1512479,1.32047863 68.6038974,0.933014245 69.2425299,0.971760684 L69.5297094,0.989842355 C69.7758632,1.01050712 69.8387692,0.699244065 69.6117607,0.641124406 C68.9334701,0.426727445 68.1512479,0.542966762 67.4114188,0.542966762 L64.5929573,0.542966762 C64.4083419,0.542966762 64.2838974,0.679870845 64.3659487,0.796110161 C64.4685128,1.04925356 64.7775726,1.10737322 65.1276581,1.12674644 C65.5187692,1.16549288 65.9919316,1.20423932 65.9919316,2.0979905 L65.9919316,12.8230047 C65.9919316,13.6780095 65.7854359,14.473603 64.8185983,14.513641 C64.5519316,14.513641 64.5314188,14.8429858 64.7980855,14.862359 C65.5392821,14.9011054 66.2791111,14.7848661 67.0613333,14.7848661 C67.8230427,14.7848661 68.5628718,14.8236125 69.3245812,14.8042393 C70.0644103,14.7848661 70.8056068,14.7848661 71.5249231,14.7848661 C72.3276581,14.7848661 73.1303932,14.7848661 73.9522735,14.862359 C73.9932991,14.202378 74.0548376,13.4442393 74.1587692,12.4923685 C74.1587692,12.3761292 74.1792821,12.2598898 74.1997949,12.142359 C74.2408205,11.9486268 73.8497094,11.8698424 73.7266325,12.0454929 L73.7266325,12.0454929 Z M54.1478291,0.486138651 L52.4808205,0.486138651 C52.0691966,0.486138651 51.6575726,0.52488509 51.2254359,0.504220323 C50.7741538,0.486138651 50.3420171,0.486138651 49.888,0.486138651 L49.4572308,0.486138651 C49.250735,0.486138651 49.1481709,0.621751187 49.2302222,0.737990503 C49.373812,1.02988034 49.7238974,1.04925356 50.0534701,1.088 C50.4445812,1.12674644 50.8562051,1.1848661 50.8562051,1.98175119 L50.8562051,12.8230047 C50.8562051,14.1055119 50.8151795,14.2992441 49.6418462,14.513641 C49.373812,14.5523875 49.3956923,14.8429858 49.662359,14.862359 C51.3293675,14.9398519 52.9950085,14.8817322 54.6401368,14.8817322 C54.8261197,14.8817322 54.9491966,14.7654929 54.8671453,14.6492536 C54.7235556,14.3767369 54.4350085,14.3767369 54.0644103,14.3573637 C53.8387692,14.3379905 53.5297094,14.3186173 53.3861197,14.1830047 C53.2835556,14.0848471 53.0360342,12.8811244 53.0360342,12.6861007 L53.0360342,1.51550237 C53.4271453,1.37859829 53.8797949,1.26235897 54.3324444,1.26235897 C56.2661197,1.26235897 57.376547,3.12735423 57.376547,4.83736372 C57.376547,6.72173219 56.1635556,7.84925356 54.1478291,7.84925356 C54.0028718,7.84925356 53.8592821,7.84925356 53.7362051,7.82988034 C53.4681709,7.81050712 53.3656068,8.31550237 53.6322735,8.37362203 C53.982359,8.47048813 54.4144957,8.52860779 54.8261197,8.52860779 C57.4175726,8.52860779 59.2897094,6.19736372 59.2897094,3.94361254 C59.2897094,0.796110161 56.6777436,0.486138651 54.1478291,0.486138651 L54.1478291,0.486138651 Z M41.8551795,13.6780095 C41.3615043,12.8811244 40.990906,9.11109592 40.8049231,6.85734473 C40.7638974,6.29422982 40.702359,5.76986135 40.6818462,5.49863628 C40.4972308,3.78862678 40.290735,2.05924406 40.065094,0.349234568 C40.0445812,0.174875594 39.7560342,0.134837607 39.6329573,0.27174169 C38.8917607,1.32047863 38.336547,2.46737322 37.8018462,3.5548566 L37.3902222,4.40986135 C36.8144957,5.59550237 36.2387692,6.72173219 35.6835556,7.888 C35.0244103,9.248 34.3666325,10.5692536 33.6664615,11.9292536 C33.3792821,11.4048851 33.0291966,10.6854929 32.350906,9.3448661 C30.6018462,5.9248471 28.1129573,0.989842355 27.3102222,0.252368471 C27.1461197,0.134837607 26.9396239,0.194248813 26.9204786,0.349234568 C26.8575726,0.737990503 26.7550085,1.67048813 26.6319316,2.81738272 C26.1997949,6.74110541 25.4599658,13.5604786 25.1714188,14.1055119 C25.0059487,14.4348566 24.7597949,14.4542298 24.4726154,14.4929763 C24.3481709,14.513641 23.936547,14.5911339 23.936547,14.5704691 C23.7929573,14.6686268 23.8339829,14.862359 24.0609915,14.8817322 C25.4599658,14.9605166 26.879453,14.9011054 28.2770598,14.9011054 C28.545094,14.9011054 28.6066325,14.6686268 28.3809915,14.5911339 C28.030906,14.4348566 27.7628718,14.3379905 27.5577436,14.2604976 L27.5782564,14.2604976 C27.0435556,14.0461007 27.0435556,14.0461007 27.0435556,13.1910959 L27.0435556,12.627981 C27.0435556,10.8598519 27.3102222,8.93673694 27.5782564,7.16860779 C27.6808205,6.46988034 27.7833846,5.73111491 27.8449231,5.01301425 C28.4835556,6.15861728 28.6681709,6.64423932 29.2438974,7.84925356 C30.3967179,10.2386173 31.5276581,12.627981 33.2151795,14.7848661 C33.3382564,14.8817322 33.5433846,14.8817322 33.6254359,14.7654929 C34.1409915,13.7555024 34.6346667,12.7648851 35.1283419,11.7729763 C36.2797949,9.48047863 37.4121026,7.16860779 38.6456068,4.93422982 C38.7481709,6.08112441 38.850735,6.60549288 38.9956923,7.75109592 C39.2418462,9.61738272 39.4688547,11.7923495 39.4688547,13.6379715 C39.4688547,13.9686078 39.4688547,14.2992441 39.3649231,14.6298803 C39.3238974,14.7461197 39.4278291,14.862359 39.5919316,14.862359 C40.9703932,14.9398519 42.3693675,14.8817322 43.7888547,14.8817322 L43.870906,14.5704691 C43.582359,14.4348566 43.2746667,14.3767369 43.0271453,14.3379905 C42.5950085,14.2604976 42.1833846,14.202378 41.8551795,13.6780095 L41.8551795,13.6780095 Z M17.7690256,14.3573637 C17.6254359,14.3573637 17.3779145,14.2992441 17.2343248,14.2411244 C17.090735,14.0267274 16.8227009,12.9198708 16.8227009,12.6667274 L16.8227009,1.96237797 C16.8227009,1.14611966 17.3368889,1.01050712 18.0780855,0.873603039 C18.3447521,0.815483381 18.3037265,0.542966762 18.0370598,0.52488509 C17.2548376,0.486138651 16.4726154,0.52488509 15.7122735,0.52488509 C14.9300513,0.52488509 14.1286838,0.486138651 13.3464615,0.542966762 C13.0989402,0.563631529 13.0989402,0.873603039 13.3464615,0.892976258 C14.0466325,0.971760684 14.6620171,1.20423932 14.6620171,1.98175119 L14.6620171,12.5892346 C14.6620171,13.0942298 14.4979145,14.2798708 13.9016752,14.2798708 C13.8196239,14.2798708 13.3259487,14.4348566 13.182359,14.3767369 C12.9553504,14.2798708 12.7297094,14.688 12.9348376,14.7848661 C13.119453,14.862359 14.2517607,14.7848661 15.4442393,14.7848661 C16.9047521,14.7848661 18.4678291,14.862359 18.4678291,14.862359 C18.6948376,14.862359 18.7768889,14.7073732 18.6332991,14.5911339 C18.3857778,14.3573637 18.0780855,14.3573637 17.7690256,14.3573637 L17.7690256,14.3573637 Z M8.14577778,11.0355024 C8.14577778,13.502359 5.01962393,15.173622 2.67432479,15.173622 C1.50099145,15.173622 -0.000547008547,14.7461197 -0.000547008547,13.3861197 C-0.000547008547,12.9779905 0.103384615,12.6086078 0.205948718,12.2598898 C0.267487179,11.9873732 0.329025641,11.7342298 0.371418803,11.5211244 C0.412444444,11.3261007 0.863726496,11.3454739 0.843213675,11.5404976 L0.822700855,11.8517607 C0.720136752,13.2698803 2.11911111,14.1055119 3.51808547,14.1055119 C4.79261538,14.1055119 6.29552137,13.2505071 6.29552137,11.8905071 C6.29552137,10.5886268 4.87603419,9.32549288 3.43603419,8.00423932 L3.43603419,8.02361254 C1.8305641,6.58611966 0.205948718,5.10858879 0.205948718,3.51611016 C0.205948718,1.12674644 3.45654701,0.116755935 5.53381197,0.116755935 C6.23398291,0.116755935 6.9122735,0.194248813 7.57005128,0.368607787 C7.67261538,0.387981007 7.73552137,0.465473884 7.73552137,0.542966762 L7.73552137,1.24298575 C7.73552137,1.94300475 7.75603419,2.75797151 7.36492308,3.24359354 C7.22133333,3.38049763 6.93278632,3.30300475 6.93278632,3.12735423 C6.95329915,1.8448471 5.88389744,1.02988034 4.58748718,1.02988034 C3.31158974,1.02988034 2.26270085,1.92363153 2.26270085,3.2048471 C2.26270085,4.54547388 3.60013675,5.55546439 4.93757265,6.6248661 C6.52116239,7.86862678 8.14577778,9.17050712 8.14577778,11.0355024 L8.14577778,11.0355024 Z" id="Fill-1" fill="#1E3264" mask="url(#mask-2)"></path>
                    </g>
                </g>
            </g>
        </g>
    </g>
</svg>