<?xml version="1.0" encoding="UTF-8"?>
<svg width="155px" height="39px" viewBox="0 0 155 39" version="1.1" xmlns="http://www.w3.org/2000/svg" xmlns:xlink="http://www.w3.org/1999/xlink">
    <!-- Generator: Sketch 51.2 (57519) - http://www.bohemiancoding.com/sketch -->
    <title>calmseat dark</title>
    <desc>Created with Sketch.</desc>
    <defs>
        <polygon id="path-1" points="0.3995 18.8157895 16.2461667 18.8157895 16.2461667 0.279671053 0.3995 0.279671053 0.3995 18.8157895"></polygon>
        <polygon id="path-3" points="0.6975 18.8157895 16.7475 18.8157895 16.7475 0.279328947 0.6975 0.279328947"></polygon>
        <polygon id="path-5" points="11.665 23.6671842 11.665 0.9685 1.612 0.9685 1.612 23.6671842 11.665 23.6671842"></polygon>
    </defs>
    <g id="Page-1" stroke="none" stroke-width="1" fill="none" fill-rule="evenodd">
        <g id="O-Saas" transform="translate(-938.000000, -3077.000000)">
            <g id="Testimonials" transform="translate(0.000000, 2766.000000)">
                <g id="calmseat" transform="translate(938.000000, 311.000000)">
                    <g id="Page-1">
                        <g id="Group-3" transform="translate(23.333333, 19.423882)">
                            <mask id="mask-2" fill="white">
                                <use xlink:href="#path-1"></use>
                            </mask>
                            <g id="Clip-2"></g>
                            <path d="M2.9895,2.93782895 C4.72783333,1.15375 6.9095,0.279671053 9.60116667,0.279671053 C11.8161667,0.279671053 13.7245,0.909144737 15.2911667,2.16809211 C15.6328333,2.41269737 15.8028333,2.65730263 15.8028333,2.97203947 C15.8028333,3.21664474 15.7011667,3.46296053 15.4961667,3.74177632 L15.1561667,4.26690789 C14.9161667,4.61585526 14.6445,4.79203947 14.3378333,4.79203947 C14.1328333,4.79203947 13.8945,4.72019737 13.6228333,4.54572368 C12.4295,3.67164474 11.1345,3.21664474 9.77116667,3.21664474 C8.03283333,3.21664474 6.60116667,3.81190789 5.47616667,5.00072368 C4.35283333,6.18953947 3.77283333,7.69480263 3.77283333,9.51309211 C3.77283333,11.3313816 4.35283333,12.8349342 5.47616667,14.0596711 C6.63616667,15.2826974 8.10116667,15.8779605 9.8395,15.8779605 C11.3728333,15.8779605 12.8378333,15.3528289 14.2361667,14.2700658 C14.4745,14.0938816 14.7128333,14.0254605 14.9511667,14.0254605 C15.2578333,14.0254605 15.5311667,14.1999342 15.7695,14.5848026 L16.0411667,15.1082237 C16.1778333,15.3528289 16.2461667,15.5991447 16.2461667,15.8078289 C16.2461667,16.1225658 16.0761667,16.4030921 15.7345,16.6476974 C14.0311667,18.0828289 11.9861667,18.8166447 9.60116667,18.8166447 C6.9095,18.8166447 4.69283333,17.9425658 2.95616667,16.1926974 C1.25116667,14.4445395 0.3995,12.2396711 0.3995,9.54730263 C0.3995,6.92506579 1.25116667,4.72019737 2.9895,2.93782895" id="Fill-1" fill="#1E3264" mask="url(#mask-2)"></path>
                        </g>
                        <path d="M47.4168333,35.5471316 C48.7785,35.5471316 49.9035,34.9518684 50.7568333,33.7972632 C51.6418333,32.6443684 52.0851667,31.3495 52.0851667,29.9160789 L52.0851667,29.1463421 L51.1985,29.1463421 C46.5301667,29.1463421 44.2135,30.3351579 44.2135,32.7127895 C44.2135,34.2522632 45.4051667,35.5471316 47.4168333,35.5471316 M43.4301667,28.4826579 C44.1451667,28.0618684 45.0301667,27.7471316 46.0201667,27.5025263 C48.0301667,26.9791053 49.4268333,26.9072632 51.1651667,26.9072632 L52.0518333,26.9072632 L52.0518333,26.4539737 C52.0518333,23.8659474 50.7901667,22.5710789 48.3035,22.5710789 C47.0085,22.5710789 45.7118333,22.9559474 44.4168333,23.6914737 C44.1785,23.7941053 43.9751667,23.8659474 43.7701667,23.8659474 C43.3951667,23.8659474 43.1218333,23.6555526 42.8835,23.2706842 L42.6118333,22.7814737 C42.4751667,22.5368684 42.4068333,22.2905526 42.4068333,22.0801579 C42.4068333,21.697 42.6118333,21.4164737 42.9868333,21.2077895 C44.7251667,20.1934474 46.5651667,19.7025263 48.5751667,19.7025263 C52.9018333,19.7025263 55.3568333,22.152 55.3568333,26.6284474 L55.3568333,36.6658158 C55.3568333,37.4355526 54.9818333,37.8204211 54.2318333,37.8204211 L53.3801667,37.8204211 C52.6301667,37.8204211 52.2551667,37.4355526 52.2551667,36.6658158 L52.2551667,35.6172632 L52.3568333,34.5327895 L52.2901667,34.5327895 L52.0851667,34.9518684 C51.9151667,35.2683158 51.1651667,36.2809474 50.3818333,36.9446316 C49.5985,37.6100263 48.1668333,38.2395 46.6668333,38.2395 C45.0651667,38.2395 43.7018333,37.7502895 42.5768333,36.8060789 C41.4518333,35.8618684 40.8735,34.567 40.8735,32.9933158 C40.8735,30.8945 42.0318333,29.2866053 43.4301667,28.4826579" id="Fill-4" fill="#1E3264"></path>
                        <path d="M59.208,14.2816974 C59.208,13.5119605 59.583,13.1270921 60.3313333,13.1270921 L61.3896667,13.1270921 C62.138,13.1270921 62.513,13.5119605 62.513,14.2816974 L62.513,32.5740658 C62.513,34.0416974 63.0246667,34.8114342 64.0813333,34.9174868 C64.6596667,34.9859079 64.9663333,35.3365658 64.9663333,35.9318289 L64.9663333,36.7699868 C64.9663333,37.5756447 64.593,37.9605132 63.808,37.9605132 C60.7413333,37.9605132 59.208,36.3166974 59.208,32.9931447 L59.208,14.2816974 Z" id="Fill-6" fill="#1E3264"></path>
                        <path d="M67.4546667,21.2765526 C67.4546667,20.5085263 67.8296667,20.1236579 68.578,20.1236579 L69.533,20.1236579 C70.283,20.1236579 70.658,20.5085263 70.658,21.2765526 L70.658,22.8502368 L70.5563333,23.8645789 L70.623,23.8645789 C71.0663333,22.7818158 71.8496667,21.8016842 72.9746667,20.9618158 C74.0996667,20.1236579 75.3263333,19.7028684 76.6213333,19.7028684 C79.4496667,19.7028684 81.188,21.0319474 81.8013333,23.7260263 L81.8696667,23.7260263 C82.3813333,22.6415526 83.1646667,21.6973421 84.2896667,20.8916842 C85.4146667,20.0877368 86.6396667,19.7028684 87.9696667,19.7028684 C91.888,19.7028684 93.6596667,21.9060263 93.6596667,26.4885263 L93.6596667,36.6661579 C93.6596667,37.4358947 93.2863333,37.8207632 92.5363333,37.8207632 L91.4796667,37.8207632 C90.7296667,37.8207632 90.3546667,37.4358947 90.3546667,36.6661579 L90.3546667,27.2240526 C90.3546667,24.3897105 89.673,22.7818158 87.3213333,22.7818158 C85.788,22.7818158 84.5613333,23.4797105 83.608,24.8447105 C82.6863333,26.208 82.2113333,27.7816842 82.2113333,29.5657632 L82.2113333,36.6661579 C82.2113333,37.4358947 81.8363333,37.8207632 81.1196667,37.8207632 L80.0296667,37.8207632 C79.313,37.8207632 78.938,37.4358947 78.938,36.6661579 L78.938,27.2240526 C78.938,24.4239211 78.3596667,22.7818158 75.9396667,22.7818158 C74.4063333,22.7818158 73.1446667,23.4797105 72.1913333,24.8447105 C71.2363333,26.208 70.7596667,27.7816842 70.7596667,29.5657632 L70.7596667,36.6661579 C70.7596667,37.4358947 70.3846667,37.8207632 69.6363333,37.8207632 L68.578,37.8207632 C67.8296667,37.8207632 67.4546667,37.4358947 67.4546667,36.6661579 L67.4546667,21.2765526 Z" id="Fill-8" fill="#1E3264"></path>
                        <path d="M96.3166667,35.5113816 C96.3166667,35.2667763 96.4183333,35.0221711 96.5883333,34.7433553 L96.93,34.2524342 C97.1683333,33.9376974 97.4416667,33.7632237 97.7483333,33.7632237 C97.9866667,33.7632237 98.225,33.8333553 98.4983333,34.0078289 C99.9283333,34.9520395 101.326667,35.44125 102.723333,35.44125 C104.461667,35.44125 105.655,34.6030921 105.655,33.0978289 C105.655,31.8405921 104.256667,31.0007237 102.485,30.4054605 C99.9966667,29.5313816 96.725,28.2707237 96.76,24.8086184 C96.76,23.2007237 97.3383333,21.9417763 98.5333333,21.0676974 C99.725,20.1576974 101.225,19.7026974 102.996667,19.7026974 C104.768333,19.7026974 106.37,20.1576974 107.768333,21.0676974 C108.141667,21.2763816 108.346667,21.5569079 108.346667,21.9058553 C108.346667,22.11625 108.278333,22.3625658 108.141667,22.6054605 L107.835,23.1305921 C107.63,23.5154605 107.358333,23.6899342 106.983333,23.6899342 C106.813333,23.6899342 106.575,23.6198026 106.335,23.5154605 C105.176667,22.8500658 104.018333,22.5011184 102.826667,22.5011184 C101.086667,22.5011184 99.9283333,23.3050658 99.9283333,24.7401974 C99.9283333,25.9991447 101.326667,26.8732237 103.065,27.4667763 C105.62,28.3425658 108.823333,29.4971711 108.823333,33.0294079 C108.823333,34.5329605 108.243333,35.7919079 107.085,36.7703289 C105.96,37.7504605 104.461667,38.2396711 102.621667,38.2396711 C100.406667,38.2396711 98.4983333,37.6101974 96.8283333,36.3170395 C96.4883333,36.1066447 96.3166667,35.8261184 96.3166667,35.5113816" id="Fill-10" fill="#1E3264"></path>
                        <g id="Group-14" transform="translate(110.000000, 19.423882)">
                            <mask id="mask-4" fill="white">
                                <use xlink:href="#path-3"></use>
                            </mask>
                            <g id="Clip-13"></g>
                            <path d="M13.4425,7.65853947 C13.3408333,4.61551316 11.6025,2.93748684 9.25083333,2.93748684 C6.69583333,2.93748684 4.65083333,4.72156579 4.2075,7.65853947 L13.4425,7.65853947 Z M3.1175,2.83314474 C4.7525,1.11919737 6.8325,0.279328947 9.31916667,0.279328947 C11.6708333,0.279328947 13.4775,1.04906579 14.7725,2.62275 C16.1008333,4.16222368 16.7475,6.18919737 16.7475,8.70709211 C16.7475,9.37248684 16.2708333,9.89761842 15.5891667,9.89761842 L4.07083333,9.89761842 C4.17416667,11.7518289 4.7875,13.2211711 5.9125,14.3039342 C7.03583333,15.3541974 8.4325,15.8776184 10.0358333,15.8776184 C11.5691667,15.8776184 12.9308333,15.4226184 14.1591667,14.4784079 C14.3975,14.3398553 14.6358333,14.2697237 14.8391667,14.2697237 C15.2141667,14.2697237 15.4875,14.4784079 15.6925,14.8632763 L15.9991667,15.3884079 C16.1691667,15.6330132 16.2375,15.8776184 16.2375,16.0880132 C16.2375,16.40275 16.0325,16.6832763 15.6591667,16.9278816 C13.9191667,18.1868289 11.9775,18.8163026 9.83083333,18.8163026 C7.1375,18.8163026 4.9575,17.9422237 3.25416667,16.1923553 C1.54916667,14.4099868 0.6975,12.2051184 0.6975,9.54867105 C0.6975,6.78446053 1.51583333,4.54709211 3.1175,2.83314474 L3.1175,2.83314474 Z" id="Fill-12" fill="#1E3264" mask="url(#mask-4)"></path>
                        </g>
                        <path d="M134.824833,35.5471316 C136.1865,35.5471316 137.3115,34.9518684 138.164833,33.7972632 C139.049833,32.6443684 139.493167,31.3495 139.493167,29.9160789 L139.493167,29.1463421 L138.6065,29.1463421 C133.938167,29.1463421 131.6215,30.3351579 131.6215,32.7127895 C131.6215,34.2522632 132.813167,35.5471316 134.824833,35.5471316 M130.838167,28.4826579 C131.553167,28.0618684 132.438167,27.7471316 133.428167,27.5025263 C135.438167,26.9791053 136.834833,26.9072632 138.573167,26.9072632 L139.459833,26.9072632 L139.459833,26.4539737 C139.459833,23.8659474 138.198167,22.5710789 135.7115,22.5710789 C134.4165,22.5710789 133.119833,22.9559474 131.824833,23.6914737 C131.5865,23.7941053 131.383167,23.8659474 131.178167,23.8659474 C130.803167,23.8659474 130.529833,23.6555526 130.2915,23.2706842 L130.019833,22.7814737 C129.883167,22.5368684 129.814833,22.2905526 129.814833,22.0801579 C129.814833,21.697 130.019833,21.4164737 130.394833,21.2077895 C132.133167,20.1934474 133.973167,19.7025263 135.983167,19.7025263 C140.309833,19.7025263 142.764833,22.152 142.764833,26.6284474 L142.764833,36.6658158 C142.764833,37.4355526 142.389833,37.8204211 141.639833,37.8204211 L140.788167,37.8204211 C140.038167,37.8204211 139.663167,37.4355526 139.663167,36.6658158 L139.663167,35.6172632 L139.764833,34.5327895 L139.698167,34.5327895 L139.493167,34.9518684 C139.323167,35.2683158 138.573167,36.2809474 137.789833,36.9446316 C137.0065,37.6100263 135.574833,38.2395 134.074833,38.2395 C132.473167,38.2395 131.109833,37.7502895 129.984833,36.8060789 C128.859833,35.8618684 128.2815,34.567 128.2815,32.9933158 C128.2815,30.8945 129.439833,29.2866053 130.838167,28.4826579" id="Fill-15" fill="#1E3264"></path>
                        <g id="Group-19" transform="translate(143.333333, 14.292303)">
                            <mask id="mask-6" fill="white">
                                <use xlink:href="#path-5"></use>
                            </mask>
                            <g id="Clip-18"></g>
                            <path d="M3.89533333,8.7685 L2.70366667,8.7685 C1.987,8.7685 1.612,8.38363158 1.612,7.61389474 L1.612,7.16060526 C1.612,6.39086842 1.987,6.006 2.737,6.006 L3.96366667,6.006 L3.96366667,2.12310526 C3.96366667,1.35336842 4.33866667,0.9685 5.087,0.9685 L6.077,0.9685 C6.827,0.9685 7.20033333,1.35336842 7.20033333,2.12310526 L7.20033333,6.006 L10.2003333,6.006 C10.9503333,6.006 11.3236667,6.39086842 11.3236667,7.16060526 L11.3236667,7.61389474 C11.3236667,8.38363158 10.9503333,8.7685 10.2336667,8.7685 L7.20033333,8.7685 L7.20033333,16.6386316 C7.20033333,19.1223158 8.29033333,20.4496842 10.472,20.6241579 C11.392,20.7302105 11.6653333,20.9748158 11.6653333,21.7787632 L11.6653333,22.5125789 C11.6653333,23.2823158 11.222,23.6671842 10.302,23.6671842 C6.622,23.6671842 3.89533333,21.3938947 3.89533333,17.1620526 L3.89533333,8.7685 Z" id="Fill-17" fill="#1E3264" mask="url(#mask-6)"></path>
                        </g>
                        <path d="M15.8725,23.7718684 L4.03083333,11.6527895 C3.16083333,10.7598947 2.65916667,9.52489474 2.65916667,8.25397368 C2.65916667,6.98476316 3.16083333,5.74805263 4.03083333,4.85515789 C4.90083333,3.96226316 6.10416667,3.44739474 7.3425,3.44739474 C8.58083333,3.44739474 9.78416667,3.96226316 10.6541667,4.85515789 L22.4958333,17.0084474 L21.5591667,17.9697632 L9.7175,5.81647368 C9.0825,5.16476316 8.24583333,4.82094737 7.3425,4.82094737 C6.43916667,4.82094737 5.6025,5.16476316 4.9675,5.81647368 C4.3325,6.46818421 3.9975,7.32686842 3.9975,8.25397368 C3.9975,9.18107895 4.3325,10.0397632 4.9675,10.6914737 L16.8091667,22.8447632 L15.8725,23.7718684 Z" id="Fill-20" fill="#1E3264"></path>
                        <path d="M17.7456667,21.8150263 L5.93733333,9.69594737 C5.16733333,8.90568421 5.16733333,7.60226316 5.93733333,6.77778947 C6.70733333,5.98752632 7.97733333,5.98752632 8.78066667,6.77778947 L20.6223333,18.9310789 L19.6523333,19.8923947 L7.81066667,7.73910526 C7.54233333,7.46542105 7.14233333,7.46542105 6.874,7.73910526 C6.60566667,8.0145 6.60566667,8.42502632 6.874,8.70042105 L18.6823333,20.8537105 L17.7456667,21.8150263 Z" id="Fill-22" fill="#1E3264"></path>
                        <g id="Group-26" transform="translate(0.000000, 0.608092)" fill="#1E3264">
                            <path d="M24.8373333,12.0061842 L23.4323333,13.4481579 L22.4956667,12.4868421 L23.9006667,11.0448684 C24.7706667,10.1519737 25.2723333,8.91697368 25.2723333,7.64605263 C25.2723333,6.37513158 24.7706667,5.17434211 23.9006667,4.24723684 C22.0606667,2.35881579 19.1173333,2.35881579 17.2773333,4.24723684 L15.8723333,5.68921053 L14.9356667,4.72789474 L16.3406667,3.28592105 C18.6823333,0.882631579 22.4956667,0.882631579 24.8706667,3.28592105 C27.179,5.655 27.179,9.60289474 24.8373333,12.0061842 L24.8373333,12.0061842 Z M20.589,10.53 L21.994,9.08802632 C22.3623333,8.71 22.5956667,8.19513158 22.5956667,7.64605263 C22.5956667,7.09697368 22.3956667,6.58210526 21.994,6.20407895 C21.5923333,5.82605263 21.124,5.58657895 20.589,5.58657895 C20.054,5.58657895 19.5523333,5.79184211 19.184,6.20407895 L17.779,7.64605263 L16.8423333,6.68473684 L18.2473333,5.24276316 C19.5523333,3.90342105 21.659,3.90342105 22.964,5.24276316 C23.599,5.89447368 23.934,6.75315789 23.934,7.68026316 C23.934,8.60736842 23.599,9.46605263 22.964,10.1177632 L21.559,11.5597368 L20.589,10.53 Z M18.6823333,8.60736842 L20.0873333,7.16539474 C20.3556667,6.89 20.789,6.89 21.024,7.16539474 C21.1573333,7.30223684 21.224,7.475 21.224,7.64605263 C21.224,7.81710526 21.1573333,7.98986842 21.024,8.12671053 L19.6523333,9.56868421 L18.6823333,8.60736842 Z M25.8073333,2.29039474 C22.9306667,-0.661973684 18.2806667,-0.661973684 15.404,2.29039474 L13.9656667,3.73236842 L12.5606667,2.29039474 C9.684,-0.661973684 5.034,-0.661973684 2.15733333,2.29039474 C-0.719333333,5.24276316 -0.719333333,10.0151316 2.15733333,12.9675 L13.9656667,25.1207895 L14.9023333,24.1594737 L3.094,12.0061842 C0.752333333,9.60289474 0.752333333,5.68921053 3.094,3.25171053 C5.43566667,0.848421053 9.249,0.848421053 11.624,3.25171053 L23.4656667,15.405 L23.934,14.9243421 L24.4023333,14.4436842 L25.8073333,13.0017105 C28.6506667,10.0151316 28.6506667,5.24276316 25.8073333,2.29039474 L25.8073333,2.29039474 Z" id="Fill-24"></path>
                        </g>
                    </g>
                </g>
            </g>
        </g>
    </g>
</svg>