<?xml version="1.0" encoding="UTF-8"?>
<svg width="380px" height="559px" viewBox="0 0 380 559" version="1.1" xmlns="http://www.w3.org/2000/svg" xmlns:xlink="http://www.w3.org/1999/xlink">
    <!-- Generator: Sketch 51.2 (57519) - http://www.bohemiancoding.com/sketch -->
    <title>App Hero</title>
    <desc>Created with Sketch.</desc>
    <defs>
        <linearGradient x1="0%" y1="0%" x2="100%" y2="100%" id="linearGradient-1">
            <stop stop-color="#FFCB9C" offset="0%"></stop>
            <stop stop-color="#F450A8" offset="100%"></stop>
        </linearGradient>
        <rect id="path-2" x="0" y="0" width="380" height="559" rx="3"></rect>
        <linearGradient x1="0%" y1="-8.02538842%" x2="100%" y2="100%" id="linearGradient-4">
            <stop stop-color="#FFCB9C" offset="0%"></stop>
            <stop stop-color="#F450A8" offset="100%"></stop>
        </linearGradient>
        <linearGradient x1="2.08163261%" y1="2.06122447%" x2="101.999998%" y2="100.999999%" id="linearGradient-5">
            <stop stop-color="#7AEAFB" offset="0%"></stop>
            <stop stop-color="#0ABCD2" offset="100%"></stop>
        </linearGradient>
        <linearGradient x1="61.6452641%" y1="2.0128578%" x2="52.4196992%" y2="86.0647652%" id="linearGradient-6">
            <stop stop-color="#FFCB9C" offset="0%"></stop>
            <stop stop-color="#F450A8" offset="100%"></stop>
        </linearGradient>
        <linearGradient x1="0%" y1="0%" x2="101.999998%" y2="100.999999%" id="linearGradient-7">
            <stop stop-color="#3023AE" offset="0%"></stop>
            <stop stop-color="#C86DD7" offset="100%"></stop>
        </linearGradient>
        <linearGradient x1="97.1484922%" y1="100%" x2="0%" y2="100%" id="linearGradient-8">
            <stop stop-color="#B4EC51" offset="0%"></stop>
            <stop stop-color="#429321" offset="100%"></stop>
        </linearGradient>
        <linearGradient x1="100%" y1="74.8417719%" x2="0%" y2="122.073523%" id="linearGradient-9">
            <stop stop-color="#B4EC51" offset="0%"></stop>
            <stop stop-color="#429321" offset="100%"></stop>
        </linearGradient>
        <linearGradient x1="10.9654631%" y1="66.2930547%" x2="86.6134264%" y2="-50.1115705%" id="linearGradient-10">
            <stop stop-color="#F551A7" offset="0%"></stop>
            <stop stop-color="#A600FF" offset="100%"></stop>
        </linearGradient>
    </defs>
    <g id="Page-1" stroke="none" stroke-width="1" fill="none" fill-rule="evenodd">
        <g id="O-Saas" transform="translate(-250.000000, -2095.000000)">
            <g id="Benefits" transform="translate(250.000000, 2095.000000)">
                <g id="App-Hero">
                    <mask id="mask-3" fill="white">
                        <use xlink:href="#path-2"></use>
                    </mask>
                    <rect stroke="url(#linearGradient-1)" x="0.5" y="0.5" width="379" height="558" rx="3"></rect>
                    <g id="Group-4" mask="url(#mask-3)">
                        <g transform="translate(1.000000, 17.000000)">
                            <path d="M0,27 L378.449156,27 L378.449156,533.743447 C378.449156,537.774596 375.181265,541.042487 371.150116,541.042487 L0,541.042487 L0,27 Z" id="bg" fill-opacity="0.1" fill="url(#linearGradient-4)" fill-rule="evenodd"></path>
                            <text id="Desktop" fill="none" opacity="0.5" font-family="OpenSans-Semibold, Open Sans" font-size="10.94856" font-weight="500">
                                <tspan x="84" y="12" fill="#1E3264">Desktop</tspan>
                            </text>
                            <text id="Mobile" fill="none" opacity="0.5" font-family="OpenSans-Semibold, Open Sans" font-size="10.94856" font-weight="500">
                                <tspan x="170" y="12" fill="#1E3264">Mobile</tspan>
                            </text>
                            <text id="Application" fill="none" opacity="0.5" font-family="OpenSans-Semibold, Open Sans" font-size="10.94856" font-weight="500">
                                <tspan x="253" y="12" fill="#1E3264">Application</tspan>
                            </text>
                            <ellipse id="Oval-2" fill="url(#linearGradient-5)" fill-rule="evenodd" cx="70.5634921" cy="7.56994819" rx="4.56349206" ry="4.56994819"></ellipse>
                            <ellipse id="Oval-2-Copy" fill="url(#linearGradient-6)" fill-rule="evenodd" cx="158.563492" cy="6.56994819" rx="4.56349206" ry="4.56994819"></ellipse>
                            <ellipse id="Oval-2-Copy-2" fill="url(#linearGradient-7)" fill-rule="evenodd" cx="239.563492" cy="6.56994819" rx="4.56349206" ry="4.56994819"></ellipse>
                            <g id="Group-2" stroke-width="1" fill="none" fill-rule="evenodd" transform="translate(125.000000, 58.000000)">
                                <text id="Partner" opacity="0.5" font-family="OpenSans, Open Sans" font-size="16.057888" font-weight="normal" fill="#261E9A">
                                    <tspan x="38.3743322" y="17.7320207">Partner</tspan>
                                </text>
                                <text id="+4" font-family="OpenSans-Light, Open Sans" font-size="35.035392" font-weight="300" fill="#24A71E">
                                    <tspan x="36.6398661" y="69.904456">+4</tspan>
                                </text>
                                <path d="M0.780952381,105.732954 C21.8854684,100.449361 28.4993447,113.827841 47.3690973,116.189897 C60.4680644,117.829585 66.7479937,105.551841 77.8923647,103.319813 C79.730204,102.951725 81.6693553,102.993638 83.5150718,103.319813 C90.8079285,104.608609 97.8357602,108.902743 105.202657,108.146095 C113.452075,107.298804 117.075577,94.0764522 121.267534,89.6453489 C123.414983,87.3753904 126.622493,86.4278279 129.299973,84.8190674" id="Path-2" stroke="url(#linearGradient-8)" stroke-width="1.459808"></path>
                                <g id="Page-1" opacity="0.219999999" transform="translate(2.971429, 3.656788)" fill="#7685B6">
                                    <path d="M8.84903046,3.11032172 C8.84903046,4.82099866 7.48787645,6.20880053 5.80799828,6.20880053 C4.12812012,6.20880053 2.76727199,4.82099866 2.76727199,3.11032172 C2.76727199,1.39870981 4.12812012,0.0109079419 5.80799828,0.0109079419 C7.48787645,0.0109079419 8.84903046,1.39870981 8.84903046,3.11032172" id="Fill-1"></path>
                                    <path d="M19.3767156,3.15426514 C19.3767156,4.86587705 18.0146439,6.25367892 16.3344599,6.25367892 C14.6558052,6.25367892 13.2937336,4.86587705 13.2937336,3.15426514 C13.2937336,1.44389985 14.6558052,0.0560979869 16.3344599,0.0560979869 C18.0146439,0.0560979869 19.3767156,1.44389985 19.3767156,3.15426514" id="Fill-2"></path>
                                    <path d="M22.2895852,15.2639506 L21.0208061,8.97723618 C20.6849528,7.31299591 19.0898027,6.24027773 17.4551943,6.58372208 C16.0967932,6.86857519 15.1433737,8.04226974 15.0537516,9.38612818 L14.2508237,12.0560807 L11.9029095,13.1113462 C12.5253698,13.488761 12.9435041,14.1778312 12.9435041,14.9691245 C12.9435041,15.3297099 12.8551055,15.6678561 12.7021669,15.967357 L15.97016,14.4982131 L16.3751416,16.5018462 C16.6690897,17.956654 17.9259395,18.9586263 19.3299163,18.9586263 C19.5317954,18.9586263 19.7361214,18.9380571 19.9404474,18.8953603 C21.5738323,18.5544092 22.6254384,16.9278792 22.2895852,15.2639506 Z" id="Fill-3"></path>
                                    <path d="M11.2373205,13.4560371 L8.49421278,12.2228164 L7.44015959,8.72012041 C7.39121922,8.55712459 7.3159734,8.40971155 7.22145731,8.27943956 C6.82259331,7.45916233 6.07319391,6.82712501 5.12589189,6.62891212 C3.49250708,6.28546778 1.89613342,7.3578743 1.56058601,9.02211457 L0.291501073,15.308829 C-0.0443522094,16.9730693 1.00725397,18.5995992 2.64063878,18.9414853 C2.84618833,18.9841821 3.05051437,19.0047513 3.25239339,19.0047513 C4.65514672,19.0047513 5.91199657,18.0030906 6.20594466,16.5482828 L6.60144402,14.5892165 L10.0713162,16.1487405 C10.261266,16.2341341 10.458251,16.2743377 10.6530948,16.2743377 C11.2076504,16.2743377 11.7355946,15.9467877 11.9744848,15.3964042 C12.2971853,14.6527942 11.9674496,13.784522 11.2373205,13.4560371 Z" id="Fill-4"></path>
                                </g>
                                <polygon id="Page-1" fill="#5ED94C" opacity="0.425314832" points="96.3126149 57.3165304 90.5309106 51.1842487 84.7492063 57.3147139 88.4903091 57.3147139 88.4903091 64.126342 92.5715121 64.126342 92.5715121 57.3147139"></polygon>
                                <ellipse id="Oval-3" stroke="#EFF3FC" stroke-width="2.919616" fill="#B4ED51" cx="131.479365" cy="83.3566839" rx="3.65028419" ry="3.65338313"></ellipse>
                            </g>
                            <g id="Group" stroke-width="1" fill="none" fill-rule="evenodd" transform="translate(126.000000, 213.000000)">
                                <text id="Goods" opacity="0.5" font-family="OpenSans, Open Sans" font-size="16.057888" font-weight="normal" fill="#261E9A">
                                    <tspan x="47.9879274" y="17.7320207">Goods</tspan>
                                </text>
                                <text id="+47" font-family="OpenSans-Light, Open Sans" font-size="35.035392" font-weight="300" fill="#24A71E">
                                    <tspan x="28.9331171" y="69.904456">+47</tspan>
                                </text>
                                <path d="M2.55238095,129.832238 C28.0554323,113.626033 55.6192712,118.738683 82.2005045,112.556228 C91.2844597,110.443417 94.8377727,102.928651 103.864794,95.2802189 C110.87634,89.3394631 118.512153,88.8039453 126.166269,86.6422142" id="Path-3" stroke="url(#linearGradient-9)" stroke-width="1.459808" transform="translate(64.359325, 108.237226) rotate(8.000000) translate(-64.359325, -108.237226) "></path>
                                <path d="M30.3901113,20.3920109 L29.2618701,4.38914918 C29.2423018,3.97558715 28.8591145,3.65678756 28.4119653,3.65678756 L13.0853494,3.65678756 C12.6382002,3.65678756 12.2672796,3.97558715 12.2389494,4.38914918 L11.1072034,20.4341276 C11.0899717,20.6490979 11.1778828,20.8626059 11.3329685,21.012354 C11.4974002,21.1629795 11.7231653,21.2498451 11.9559399,21.2498451 L29.5448796,21.2498451 L29.5527653,21.2498451 C30.0215272,21.2498451 30.4026701,20.9026752 30.4026701,20.4800464 C30.4015018,20.4525536 30.4015018,20.4250608 30.3901113,20.3920109 Z M25.6908098,7.30601915 C25.282505,10.4144613 23.267559,12.7030914 20.7508478,12.7030914 C18.2341367,12.7030914 16.2183145,10.4144613 15.8073812,7.30601915 C15.3409558,7.09689832 14.9998256,6.6593532 14.9998256,6.14283938 C14.9998256,5.42071445 15.6420732,4.83459117 16.4440796,4.83459117 C17.232359,4.83459117 17.8737304,5.42071445 17.8737304,6.14283938 C17.8737304,6.59881053 17.6099971,6.96996344 17.2425812,7.21330404 C17.5828352,9.56101438 19.0545431,11.3948432 20.7508478,11.3948432 C22.4588352,11.3948432 23.9191526,9.56101438 24.270505,7.21330404 C23.8905304,6.96996344 23.6270891,6.59881053 23.6270891,6.14283938 C23.6270891,5.42071445 24.270505,4.83459117 25.0678383,4.83459117 C25.8584542,4.83459117 26.5033304,5.42071445 26.5033304,6.14283938 C26.5033304,6.6593532 26.1689177,7.09689832 25.6908098,7.30601915 Z" id="Page-1" fill="#DEE4F5"></path>
                                <polygon id="Page-1-Copy-2" fill="#5ED94C" opacity="0.425314832" points="110.28752 57.3165304 104.505816 51.1842487 98.7241116 57.3147139 102.465214 57.3147139 102.465214 64.126342 106.546417 64.126342 106.546417 57.3147139"></polygon>
                                <ellipse id="Oval-3-Copy" stroke="#EFF3FC" stroke-width="2.919616" fill="#B4ED51" cx="131.060317" cy="95.0557513" rx="3.65028419" ry="3.65338313"></ellipse>
                            </g>
                            <g id="Group-3" stroke-width="1" fill="none" fill-rule="evenodd" transform="translate(125.000000, 390.000000)">
                                <text id="Selling" opacity="0.5" font-family="OpenSans, Open Sans" font-size="16.057888" font-weight="normal" fill="#261E9A">
                                    <tspan x="48.9558186" y="17.7320207">Selling</tspan>
                                </text>
                                <text id="-12" font-family="OpenSans-Light, Open Sans" font-size="35.035392" font-weight="300" fill="#FC297D">
                                    <tspan x="35.8083651" y="69.904456">-12</tspan>
                                </text>
                                <path d="M0.634920635,104.64332 C21.7394366,101.946929 28.353313,108.774407 47.2230656,109.979842 C60.3220327,110.816628 66.601962,104.550892 77.7463329,103.411815 C79.5841723,103.223967 81.5233236,103.245357 83.3690401,103.411815 C90.6618967,104.06953 97.6897284,106.260967 105.056625,105.874825 C113.306043,105.442424 116.929546,98.6946238 121.121502,96.4332861 C123.268951,95.2748516 126.476462,94.7912793 129.153941,93.9702759" id="Path-2-Copy-2" stroke="url(#linearGradient-10)" stroke-width="1.459808" transform="translate(64.894431, 102.013385) scale(-1, -1) rotate(13.000000) translate(-64.894431, -102.013385) "></path>
                                <g id="Page-1" opacity="0.64896222" transform="translate(9.237043, 3.656788)" fill="#7685B6">
                                    <path d="M20.1133979,8.55736994 C20.1133979,6.79420225 18.8898499,5.31215444 17.2419806,4.89027238 L17.2419806,0.973200609 C17.2419806,0.60511559 17.0263487,0.270198673 16.6914657,0.115279374 C16.3533156,-0.0412578812 15.9575819,0.00930324771 15.6721146,0.244715864 L10.1955529,4.76528527 L2.88407748,4.76528527 C1.30032607,4.76528527 0.0126602098,6.04063919 0.0126602098,7.60924765 L0.0126602098,9.50549223 C0.0126602098,11.0745052 1.30032607,12.3494546 2.88407748,12.3494546 L4.07291203,12.3494546 L4.80516223,18.1546812 C4.86560452,18.6303603 5.27236481,18.9859061 5.75590315,18.9859061 L10.5414625,18.9859061 C10.8640936,18.9859061 11.1638547,18.826133 11.3410977,18.5591702 C11.5179322,18.2938254 11.5481533,17.9572905 11.4207345,17.663227 L9.12188539,12.3494546 L10.2515028,12.3494546 L15.753385,15.9821706 C16.0470202,16.1763253 16.4251929,16.1937184 16.7359806,16.0294958 C17.0471768,15.8636553 17.2419806,15.5428955 17.2419806,15.193417 L17.2419806,12.224872 C18.8898499,11.8029899 20.1133979,10.3209421 20.1133979,8.55736994 Z M6.71317837,9.50549223 L4.79862793,9.50549223 C4.27057466,9.50549223 3.8413527,9.08037426 3.8413527,8.55736994 C3.8413527,8.03436562 4.27057466,7.60924765 4.79862793,7.60924765 L6.71317837,7.60924765 C7.24082324,7.60924765 7.6700452,8.03436562 7.6700452,8.55736994 C7.6700452,9.08037426 7.24082324,9.50549223 6.71317837,9.50549223 Z" id="Fill-1" opacity="0.30626166"></path>
                                    <path d="M21.6991913,3.19465437 C21.3259193,2.82495139 20.7194544,2.82495139 20.3461824,3.19465437 C19.9729104,3.56435734 19.9729104,4.16502355 20.3461824,4.53472653 C22.5862228,6.75294437 22.5862228,10.3617955 20.3461824,12.5787999 C19.9729104,12.9485029 19.9729104,13.5487646 20.3461824,13.9184676 C20.5328184,14.103319 20.7786715,14.196756 21.022891,14.196756 C21.2683358,14.196756 21.5125553,14.104937 21.6991913,13.9184676 C24.6853672,10.9624617 24.6853672,6.15268265 21.6991913,3.19465437 Z" id="Fill-2" opacity="0.30626166"></path>
                                </g>
                                <polygon id="Page-1-Copy-3" fill="#FC297D" opacity="0.425314832" transform="translate(102.637795, 57.655295) scale(1, -1) translate(-102.637795, -57.655295) " points="108.419499 57.3165304 102.637795 51.1842487 96.8560904 57.3147139 100.597193 57.3147139 100.597193 64.126342 104.678396 64.126342 104.678396 57.3147139"></polygon>
                                <ellipse id="Oval-3-Copy-2" stroke="#EFF3FC" stroke-width="2.919616" fill="#F551A6" cx="132.063492" cy="113.335544" rx="3.65028419" ry="3.65338313"></ellipse>
                            </g>
                        </g>
                    </g>
                </g>
            </g>
        </g>
    </g>
</svg>