<?xml version="1.0" encoding="UTF-8"?>
<svg width="39px" height="39px" viewBox="0 0 39 39" version="1.1" xmlns="http://www.w3.org/2000/svg" xmlns:xlink="http://www.w3.org/1999/xlink">
    <!-- Generator: Sketch 51.2 (57519) - http://www.bohemiancoding.com/sketch -->
    <title>Group 5</title>
    <desc>Created with Sketch.</desc>
    <defs>
        <linearGradient x1="50%" y1="0%" x2="50%" y2="100%" id="linearGradient-1">
            <stop stop-color="#FFCB9C" offset="0%"></stop>
            <stop stop-color="#EB65B8" offset="100%"></stop>
        </linearGradient>
    </defs>
    <g id="Page-1" stroke="none" stroke-width="1" fill="none" fill-rule="evenodd">
        <g id="O-Saas" transform="translate(-308.000000, -897.000000)">
            <g id="Intro" transform="translate(250.000000, 825.000000)">
                <g id="Intro-01" transform="translate(57.000000, 72.000000)">
                    <g id="Group-5" transform="translate(1.000000, 0.000000)">
                        <circle id="Oval-5" fill="url(#linearGradient-1)" cx="19.5" cy="19.5" r="19.5"></circle>
                        <path d="M16.6920112,26.1538462 C17.4499589,26.1538462 18.0646785,26.7646154 18.0646785,27.5184615 L18.0646785,28.6361538 C18.0646785,29.3892308 17.4499589,30 16.691237,30 L9.3726673,30 C8.61471959,30 8,29.3892308 8,28.6353846 L8,27.5176923 C8,26.7646154 8.61471959,26.1538462 9.3726673,26.1538462 L16.6920112,26.1538462 Z M21.3368603,20.7692308 C22.094808,20.7692308 22.7095276,21.38 22.7095276,22.1338462 L22.7095276,23.2515385 C22.7095276,24.0046154 22.094808,24.6153846 21.3360861,24.6153846 L14.0175164,24.6153846 C13.2595687,24.6153846 12.6448491,24.0046154 12.6448491,23.2507692 L12.6448491,22.1330769 C12.6448491,21.38 13.2595687,20.7692308 14.0175164,20.7692308 L21.3368603,20.7692308 Z M25.9820965,15.3846154 C26.7400442,15.3846154 27.3547638,15.9953846 27.3547638,16.7484615 L27.3547638,17.8669231 C27.3547638,18.62 26.7400442,19.2307692 25.9813223,19.2307692 L18.6627526,19.2307692 C17.9048049,19.2307692 17.2900853,18.62 17.2900853,17.8661538 L17.2900853,16.7484615 C17.2900853,15.9953846 17.9048049,15.3846154 18.6635268,15.3846154 L25.9820965,15.3846154 Z M30.6273327,10 C31.3852804,10 32,10.6107692 32,11.3638462 L32,12.4823077 C32,13.2353846 31.3852804,13.8461538 30.6265585,13.8461538 L23.308763,13.8461538 C22.5500411,13.8461538 21.9353215,13.2353846 21.9353215,12.4815385 L21.9353215,11.3638462 C21.9353215,10.6107692 22.5500411,10 23.3095373,10 L30.6273327,10 Z" id="Combined-Shape" fill="#FFFFFF"></path>
                    </g>
                </g>
            </g>
        </g>
    </g>
</svg>