<?xml version="1.0" encoding="UTF-8"?>
<svg width="44px" height="44px" viewBox="0 0 44 44" version="1.1" xmlns="http://www.w3.org/2000/svg" xmlns:xlink="http://www.w3.org/1999/xlink">
    <!-- Generator: Sketch 51.2 (57519) - http://www.bohemiancoding.com/sketch -->
    <title>Group 8</title>
    <desc>Created with Sketch.</desc>
    <defs>
        <linearGradient x1="0%" y1="100%" x2="100%" y2="0%" id="linearGradient-1">
            <stop stop-color="#3023AE" offset="0%"></stop>
            <stop stop-color="#C86DD7" offset="100%"></stop>
        </linearGradient>
    </defs>
    <g id="Page-1" stroke="none" stroke-width="1" fill="none" fill-rule="evenodd">
        <g id="O-Saas" transform="translate(-599.000000, -894.000000)">
            <g id="Intro" transform="translate(250.000000, 825.000000)">
                <g id="Intro-02" transform="translate(348.000000, 68.000000)">
                    <g id="Group-8">
                        <rect id="Rectangle-3" fill="url(#linearGradient-1)" transform="translate(23.000000, 23.000000) rotate(-45.000000) translate(-23.000000, -23.000000) " x="7" y="7" width="32" height="32" rx="3"></rect>
                        <path d="M16.50005,24.974406 L21.4855883,24.974406 C21.7617307,24.974406 21.9855883,25.1982636 21.9855883,25.474406 C21.9855883,25.5219035 21.9788204,25.5691586 21.9654888,25.6147467 L19.7069786,33.3378073 C19.6294706,33.602849 19.7814966,33.8805405 20.0465384,33.9580485 C20.2522317,34.0182009 20.4733855,33.9405788 20.5963637,33.7650668 L28.9287207,21.8733 C29.0871816,21.647148 29.032307,21.3353575 28.806155,21.1768967 C28.7220761,21.1179841 28.6219004,21.0863812 28.5192362,21.0863812 L23.5320666,21.0863812 C23.2559243,21.0863812 23.0320666,20.8625236 23.0320666,20.5863812 C23.0320666,20.5439395 23.0374705,20.5016704 23.0481478,20.4605937 L25.0846816,12.6258189 C25.1541521,12.3585579 24.9938113,12.085583 24.7265502,12.0161124 C24.5215869,11.9628353 24.3052906,12.0444606 24.1866274,12.2198671 L16.0859148,24.1942418 C15.9311844,24.4229624 15.9911653,24.7338109 16.2198859,24.8885413 C16.3026032,24.9444998 16.4001825,24.974406 16.50005,24.974406 Z" id="Page-1" fill="#FFFFFF"></path>
                    </g>
                </g>
            </g>
        </g>
    </g>
</svg>