<?xml version="1.0" encoding="UTF-8"?>
<svg width="36px" height="36px" viewBox="0 0 36 36" version="1.1" xmlns="http://www.w3.org/2000/svg" xmlns:xlink="http://www.w3.org/1999/xlink">
    <!-- Generator: Sketch 51.2 (57519) - http://www.bohemiancoding.com/sketch -->
    <title>Group 10</title>
    <desc>Created with Sketch.</desc>
    <defs>
        <linearGradient x1="50%" y1="0%" x2="50%" y2="100%" id="linearGradient-1">
            <stop stop-color="#FFCB9C" offset="0%"></stop>
            <stop stop-color="#EB65B8" offset="100%"></stop>
        </linearGradient>
    </defs>
    <g id="Page-1" stroke="none" stroke-width="1" fill="none" fill-rule="evenodd">
        <g id="O-Saas" transform="translate(-731.000000, -2290.000000)">
            <g id="Benefits" transform="translate(250.000000, 2095.000000)">
                <g id="Benefit-01" transform="translate(481.000000, 195.000000)">
                    <g id="Group-10">
                        <circle id="Oval-5" fill="url(#linearGradient-1)" cx="18" cy="18" r="18"></circle>
                        <path d="M18.0002803,23.3019583 C15.0247203,23.3019583 12.6128002,20.8900383 12.6128002,17.9144782 C12.6128002,14.9391981 15.0247203,12.5269981 18.0002803,12.5269981 C20.9758404,12.5269981 23.3877605,14.9389181 23.3877605,17.9144782 C23.3877605,20.8900383 20.9758404,23.3019583 18.0002803,23.3019583 M31.9988807,17.8623982 C31.9997207,17.8797582 32.0008407,17.8968382 32.0008407,17.9144782 C32.0008407,17.9321182 32.0002807,17.9494782 31.9994407,17.9668382 C31.9988807,17.9785982 31.9977607,17.9897982 31.9969207,18.0009982 C31.9963607,18.0068782 31.9960807,18.0124782 31.9955207,18.0183582 C31.9946807,18.0267582 31.9932807,18.0351582 31.9921607,18.0432782 C31.9910407,18.0530782 31.9899207,18.0625982 31.9882407,18.0723982 C31.9879607,18.0735182 31.9876807,18.0749182 31.9876807,18.0760382 C31.9532407,18.2927582 31.8513207,18.4954782 31.6950807,18.6519982 C31.4016407,19.0000382 31.0804807,19.3267982 30.7579206,19.6473982 C29.0132406,21.3786383 27.0112406,22.9228383 24.8194005,24.0428384 C23.4182805,24.7585184 21.9219604,25.3358784 20.3696404,25.6136384 C18.6627604,25.9188384 16.9539203,25.9034384 15.2560003,25.5425184 C12.3182402,24.9181184 9.65684014,23.3671983 7.32948008,21.5130383 C6.24896005,20.6523183 5.18636003,19.7103982 4.29316001,18.6517182 C3.90228,18.1885982 3.90228,17.6400782 4.29316001,17.1769582 C4.58660001,16.8289182 4.90776002,16.5018782 5.23060003,16.1815582 C6.97500007,14.4503181 8.97700012,12.9061181 11.1691202,11.7861181 C12.5696802,11.070438 14.0660002,10.493078 15.6186003,10.215318 C17.3254803,9.91011801 19.0340404,9.92551801 20.7319604,10.286158 C23.6697205,10.910558 26.3311205,12.4617581 28.6582006,14.3159181 C29.7387206,15.1763581 30.8013207,16.1185582 31.6945207,17.1772382 C31.8507607,17.3334782 31.9526807,17.5364782 31.9871207,17.7529182 C31.9871207,17.7540382 31.9874007,17.7554382 31.9876807,17.7565582 C31.9893607,17.7660782 31.9904807,17.7758782 31.9916007,17.7856782 C31.9927207,17.7937982 31.9944007,17.8021982 31.9949607,17.8105982 C31.9955207,17.8161982 31.9958007,17.8220782 31.9963607,17.8279582 C31.9972007,17.8394382 31.9983207,17.8506382 31.9988807,17.8623982 Z M18.0002803,16.1312142 C17.0152403,16.1312142 16.2169603,16.9297742 16.2169603,17.9145342 C16.2169603,18.8995742 17.0152403,19.6978542 18.0002803,19.6978542 C18.9853204,19.6978542 19.7836004,18.8995742 19.7836004,17.9145342 C19.7836004,16.9297742 18.9853204,16.1312142 18.0002803,16.1312142 Z" id="Combined-Shape" fill="#FFFFFF"></path>
                    </g>
                </g>
            </g>
        </g>
    </g>
</svg>