<?xml version="1.0" encoding="UTF-8"?>
<svg width="44px" height="44px" viewBox="0 0 44 44" version="1.1" xmlns="http://www.w3.org/2000/svg" xmlns:xlink="http://www.w3.org/1999/xlink">
    <!-- Generator: Sketch 51.2 (57519) - http://www.bohemiancoding.com/sketch -->
    <title>Group 11</title>
    <desc>Created with Sketch.</desc>
    <defs>
        <linearGradient x1="0%" y1="100%" x2="100%" y2="0%" id="linearGradient-1">
            <stop stop-color="#3023AE" offset="0%"></stop>
            <stop stop-color="#C86DD7" offset="100%"></stop>
        </linearGradient>
    </defs>
    <g id="Page-1" stroke="none" stroke-width="1" fill="none" fill-rule="evenodd">
        <g id="O-Saas" transform="translate(-727.000000, -2412.000000)">
            <g id="Benefits" transform="translate(250.000000, 2095.000000)">
                <g id="Benefit-02" transform="translate(476.000000, 316.000000)">
                    <g id="Group-11">
                        <rect id="Rectangle-3" fill="url(#linearGradient-1)" transform="translate(23.000000, 23.000000) rotate(-45.000000) translate(-23.000000, -23.000000) " x="7" y="7" width="32" height="32" rx="3"></rect>
                        <path d="M15.763405,29 L29.0827489,29 C29.8406966,29 30.4554162,29.6107692 30.4554162,30.3646154 L30.4554162,31.4823077 C30.4554162,32.2353846 29.8406966,32.8461538 29.0819746,32.8461538 L15.763405,32.8461538 C15.0054573,32.8461538 14.3907377,32.2353846 14.3907377,31.4815385 L14.3907377,30.3638462 C14.3907377,29.6107692 15.0054573,29 15.763405,29 Z M15.763405,23.6666667 L27.0827489,23.6666667 C27.8406966,23.6666667 28.4554162,24.2774359 28.4554162,25.0312821 L28.4554162,26.1489744 C28.4554162,26.9020513 27.8406966,27.5128205 27.0819746,27.5128205 L15.763405,27.5128205 C15.0054573,27.5128205 14.3907377,26.9020513 14.3907377,26.1482051 L14.3907377,25.0305128 C14.3907377,24.2774359 15.0054573,23.6666667 15.763405,23.6666667 Z M15.8918146,18.3333333 L24.8905069,18.3333333 C25.7188915,18.3333333 26.3907377,18.9441026 26.3907377,19.6971795 L26.3907377,20.815641 C26.3907377,21.5687179 25.7188915,22.1794872 24.8896608,22.1794872 L15.8909685,22.1794872 C15.0625838,22.1794872 14.3907377,21.5687179 14.3907377,20.8148718 L14.3907377,19.6971795 C14.3907377,18.9441026 15.0625838,18.3333333 15.8918146,18.3333333 Z M23.0827489,13 C23.8406966,13 24.4554162,13.6107692 24.4554162,14.3638462 L24.4554162,15.4823077 C24.4554162,16.2353846 23.8406966,16.8461538 23.0819746,16.8461538 L15.7641792,16.8461538 C15.0054573,16.8461538 14.3907377,16.2353846 14.3907377,15.4815385 L14.3907377,14.3638462 C14.3907377,13.6107692 15.0054573,13 15.7649534,13 L23.0827489,13 Z" id="Combined-Shape" fill="#FFFFFF" transform="translate(22.423077, 22.923077) rotate(-90.000000) translate(-22.423077, -22.923077) "></path>
                    </g>
                </g>
            </g>
        </g>
    </g>
</svg>