<?xml version="1.0" encoding="UTF-8"?>
<svg width="40px" height="33px" viewBox="0 0 40 33" version="1.1" xmlns="http://www.w3.org/2000/svg" xmlns:xlink="http://www.w3.org/1999/xlink">
    <!-- Generator: Sketch 51.2 (57519) - http://www.bohemiancoding.com/sketch -->
    <title>Group 12</title>
    <desc>Created with Sketch.</desc>
    <defs>
        <linearGradient x1="2.21231975%" y1="97.5395271%" x2="64.2365874%" y2="35.2339941%" id="linearGradient-1">
            <stop stop-color="#7AEAFB" offset="0%"></stop>
            <stop stop-color="#0ABCD2" offset="100%"></stop>
        </linearGradient>
    </defs>
    <g id="Page-1" stroke="none" stroke-width="1" fill="none" fill-rule="evenodd">
        <g id="O-Saas" transform="translate(-729.000000, -2553.000000)">
            <g id="Benefits" transform="translate(250.000000, 2095.000000)">
                <g id="Benefit-03" transform="translate(473.000000, 457.000000)">
                    <g id="Group-12">
                        <path d="M19.3755887,8.87925415 L42.9070105,32.4099241 C44.0786021,33.5814782 44.0786324,35.4809732 42.9070783,36.6525648 C42.495183,37.0644732 41.9722768,37.3475558 41.4021908,37.4672566 L11.6164668,43.7213591 C9.99497072,44.0618243 8.40448687,43.0233436 8.06402168,41.4018475 C7.97865677,40.9952895 7.97865947,40.5754332 8.0640296,40.1688762 L14.3183319,10.3841039 C14.6588179,8.7626122 16.2493151,7.72415194 17.8708068,8.06463798 C18.4408465,8.18433675 18.9637126,8.46739119 19.3755887,8.87925415 Z" id="Rectangle-3-Copy" fill="url(#linearGradient-1)" transform="translate(25.892862, 25.892995) rotate(-225.000000) translate(-25.892862, -25.892995) "></path>
                        <path d="M35,27.9000823 C35,28.373608 34.6167519,28.7574543 34.1439642,28.7574543 L17.8560358,28.7574543 C17.3832481,28.7574543 17,28.373608 17,27.9000823 L17,17.857372 C17,17.3838463 17.3832481,17 17.8560358,17 L34.1439642,17 C34.6167519,17 35,17.3838463 35,17.857372 L35,27.9000823 Z M29.3168798,22.8787271 L29.3168798,22.8764217 C29.3154987,20.9883129 27.7431458,19.4690654 25.8386445,19.5580532 C24.1484399,19.6371278 22.7586189,21.0309625 22.6819693,22.7240359 C22.5956522,24.63151 24.1148338,26.2044729 26,26.2030897 C27.8317647,26.2005538 29.3154987,24.7133511 29.3168798,22.8787271 Z" id="Combined-Shape" fill="#FFFFFF"></path>
                    </g>
                </g>
            </g>
        </g>
    </g>
</svg>